<svg width="238" height="43" viewBox="0 0 238 43" fill="none" xmlns="http://www.w3.org/2000/svg">
<path d="M12.695 34.4843C9.91678 34.4843 7.56137 34.0162 5.62872 33.0801C3.69607 32.1138 2.0503 30.8757 0.691406 29.3658L5.22105 24.7908C7.36508 27.2066 10.0074 28.4145 13.1479 28.4145C14.839 28.4145 16.0922 28.0673 16.9075 27.3727C17.7229 26.6782 18.1305 25.7572 18.1305 24.6096C18.1305 23.7339 17.889 23.0092 17.4058 22.4354C16.9226 21.8315 15.9412 21.4238 14.4615 21.2124L11.3361 20.8047C7.98413 20.382 5.52303 19.3704 3.95275 17.7699C2.41267 16.1694 1.64263 14.0405 1.64263 11.3831C1.64263 9.96379 1.91441 8.66529 2.45797 7.48758C3.00153 6.30988 3.77156 5.29826 4.76809 4.45272C5.79481 3.60719 7.03291 2.95794 8.4824 2.50498C9.96208 2.02181 11.638 1.78023 13.5103 1.78023C15.8959 1.78023 17.9946 2.1577 19.8065 2.91264C21.6184 3.66758 23.1735 4.7698 24.472 6.21928L19.8971 10.8395C19.1422 9.96379 18.2211 9.25415 17.134 8.71059C16.0771 8.13683 14.7333 7.84996 13.1026 7.84996C11.5626 7.84996 10.415 8.12174 9.6601 8.66529C8.90516 9.20885 8.52769 9.96379 8.52769 10.9301C8.52769 12.0172 8.81457 12.8024 9.38832 13.2855C9.99228 13.7687 10.9586 14.116 12.2873 14.3273L15.4128 14.8256C18.6741 15.339 21.0899 16.3506 22.6602 17.8605C24.2305 19.3402 25.0156 21.454 25.0156 24.202C25.0156 25.7119 24.7438 27.1009 24.2003 28.3692C23.6567 29.6375 22.8565 30.7247 21.7995 31.6306C20.7728 32.5365 19.4894 33.2462 17.9494 33.7595C16.4093 34.2427 14.6578 34.4843 12.695 34.4843Z" fill="#232323"/>
<path d="M41.6858 29.9546H41.4593C41.2479 30.5586 40.961 31.1323 40.5986 31.6759C40.2665 32.2194 39.8286 32.7026 39.285 33.1254C38.7415 33.5481 38.0922 33.8803 37.3373 34.1219C36.6125 34.3635 35.767 34.4843 34.8007 34.4843C32.3547 34.4843 30.4975 33.684 29.2292 32.0836C27.9911 30.4529 27.3721 28.1277 27.3721 25.1079V10.1601H34.0759V24.5191C34.0759 25.9685 34.3326 27.0859 34.846 27.871C35.3593 28.6561 36.2351 29.0487 37.4732 29.0487C37.9865 29.0487 38.4999 28.9732 39.0133 28.8222C39.5266 28.6712 39.9796 28.4598 40.3722 28.1881C40.7647 27.8861 41.0818 27.5237 41.3234 27.1009C41.565 26.6782 41.6858 26.1799 41.6858 25.6062V10.1601H48.3896V33.9407H41.6858V29.9546Z" fill="#232323"/>
<path d="M51.9093 10.1601H58.6132V14.1462H58.8397C59.1718 12.8175 59.9268 11.7304 61.1045 10.8848C62.3124 10.0393 63.6864 9.61652 65.2265 9.61652C68.2462 9.61652 70.5261 10.6734 72.0662 12.7873C73.6063 14.9011 74.3763 17.9813 74.3763 22.0277C74.3763 26.0742 73.6063 29.1695 72.0662 31.3135C70.5261 33.4274 68.2462 34.4843 65.2265 34.4843C64.4413 34.4843 63.7015 34.3635 63.0069 34.1219C62.3124 33.9105 61.6782 33.6085 61.1045 33.216C60.5609 32.7932 60.0929 32.31 59.7003 31.7665C59.3077 31.1927 59.0208 30.5888 58.8397 29.9546H58.6132V43H51.9093V10.1601ZM63.0069 29.0487C64.2752 29.0487 65.317 28.6108 66.1324 27.7351C66.9779 26.8292 67.4007 25.6213 67.4007 24.1114V19.9894C67.4007 18.4795 66.9779 17.2867 66.1324 16.411C65.317 15.5051 64.2752 15.0521 63.0069 15.0521C61.7386 15.0521 60.6817 15.3692 59.8362 16.0033C59.0208 16.6073 58.6132 17.4528 58.6132 18.5399V25.5609C58.6132 26.648 59.0208 27.5086 59.8362 28.1428C60.6817 28.7467 61.7386 29.0487 63.0069 29.0487Z" fill="#232323"/>
<path d="M86.6697 34.4843C84.8579 34.4843 83.2423 34.1974 81.823 33.6236C80.4037 33.0197 79.1958 32.1893 78.1993 31.1323C77.233 30.0452 76.4931 28.7316 75.9798 27.1915C75.4966 25.6515 75.255 23.9302 75.255 22.0277C75.255 20.1555 75.4966 18.4644 75.9798 16.9545C76.4629 15.4145 77.1726 14.1009 78.1087 13.0138C79.075 11.9266 80.2527 11.0962 81.6418 10.5224C83.0309 9.9185 84.6163 9.61652 86.3979 9.61652C88.3608 9.61652 90.0368 9.94869 91.4259 10.613C92.8451 11.2774 93.9927 12.1682 94.8684 13.2855C95.7743 14.4028 96.4236 15.7013 96.8161 17.181C97.2389 18.6305 97.4503 20.1555 97.4503 21.756V23.749H82.1854V24.1114C82.1854 25.6817 82.6081 26.9349 83.4537 27.871C84.2992 28.7769 85.6279 29.2299 87.4398 29.2299C88.8289 29.2299 89.9613 28.9581 90.837 28.4145C91.7127 27.8408 92.5281 27.1613 93.283 26.3762L96.6349 30.5435C95.578 31.7816 94.1889 32.7479 92.4677 33.4425C90.7766 34.137 88.844 34.4843 86.6697 34.4843ZM86.5338 14.5538C85.1749 14.5538 84.1029 15.0068 83.3178 15.9127C82.5628 16.7885 82.1854 17.9662 82.1854 19.4458V19.8082H90.5199V19.4006C90.5199 17.9511 90.1878 16.7885 89.5234 15.9127C88.8893 15.0068 87.8927 14.5538 86.5338 14.5538Z" fill="#232323"/>
<path d="M99.467 33.9407V10.1601H106.171V15.3239H106.397C106.518 14.6595 106.73 14.0254 107.032 13.4214C107.334 12.7873 107.726 12.2286 108.209 11.7455C108.723 11.2623 109.327 10.8848 110.021 10.613C110.716 10.3111 111.531 10.1601 112.467 10.1601H113.645V16.411H111.969C110.006 16.411 108.541 16.6677 107.575 17.181C106.639 17.6944 106.171 18.6456 106.171 20.0347V33.9407H99.467Z" fill="#232323"/>
<path d="M121.721 33.9407C119.426 33.9407 117.735 33.3821 116.648 32.2647C115.591 31.1474 115.062 29.5319 115.062 27.418V0.421341H121.766V28.7316H124.756V33.9407H121.721Z" fill="#232323"/>
<path d="M129.409 7.62347C128.051 7.62347 127.054 7.3215 126.42 6.71755C125.816 6.0834 125.514 5.28316 125.514 4.31683V3.32031C125.514 2.35399 125.816 1.56885 126.42 0.964896C127.054 0.330747 128.051 0.0136719 129.409 0.0136719C130.768 0.0136719 131.75 0.330747 132.354 0.964896C132.988 1.56885 133.305 2.35399 133.305 3.32031V4.31683C133.305 5.28316 132.988 6.0834 132.354 6.71755C131.75 7.3215 130.768 7.62347 129.409 7.62347ZM126.057 10.1601H132.761V33.9407H126.057V10.1601Z" fill="#232323"/>
<path d="M144.363 34.4843C142.068 34.4843 140.136 34.1219 138.565 33.3972C136.995 32.6422 135.591 31.5853 134.353 30.2264L138.294 26.2403C139.139 27.1764 140.075 27.9163 141.102 28.4598C142.129 29.0034 143.291 29.2752 144.59 29.2752C145.918 29.2752 146.839 29.0789 147.353 28.6863C147.866 28.2636 148.123 27.7049 148.123 27.0104C148.123 25.893 147.323 25.2287 145.722 25.0173L143.14 24.7002C137.795 24.0359 135.123 21.5899 135.123 17.3622C135.123 16.2147 135.334 15.1729 135.757 14.2368C136.21 13.2704 136.829 12.4551 137.614 11.7907C138.429 11.0962 139.396 10.5677 140.513 10.2054C141.661 9.8128 142.944 9.61652 144.363 9.61652C145.601 9.61652 146.688 9.70711 147.625 9.8883C148.591 10.0393 149.436 10.2809 150.161 10.613C150.916 10.915 151.596 11.3076 152.2 11.7907C152.834 12.2437 153.453 12.7571 154.057 13.3308L150.206 17.2716C149.452 16.5167 148.591 15.9278 147.625 15.5051C146.688 15.0521 145.722 14.8256 144.726 14.8256C143.578 14.8256 142.763 15.0068 142.28 15.3692C141.796 15.7315 141.555 16.2147 141.555 16.8187C141.555 17.4528 141.721 17.9511 142.053 18.3134C142.415 18.6456 143.08 18.8872 144.046 19.0382L146.719 19.4006C151.943 20.0951 154.555 22.4807 154.555 26.5574C154.555 27.7049 154.313 28.7618 153.83 29.7281C153.347 30.6945 152.652 31.54 151.747 32.2647C150.871 32.9593 149.799 33.5028 148.53 33.8954C147.292 34.288 145.903 34.4843 144.363 34.4843Z" fill="#232323"/>
<path d="M164.389 33.9407C162.063 33.9407 160.297 33.3519 159.089 32.1742C157.911 30.9964 157.322 29.2752 157.322 27.0104V15.3692H153.97V10.1601H155.646C156.552 10.1601 157.171 9.94869 157.503 9.52593C157.836 9.07296 158.002 8.43881 158.002 7.62347V3.72798H164.026V10.1601H168.737V15.3692H164.026V28.7316H168.375V33.9407H164.389Z" fill="#232323"/>
<path d="M188.251 33.9407C187.043 33.9407 186.032 33.5632 185.216 32.8083C184.431 32.0534 183.933 31.0417 183.722 29.7734H183.45C183.087 31.3135 182.287 32.4912 181.049 33.3066C179.811 34.0917 178.286 34.4843 176.474 34.4843C174.089 34.4843 172.262 33.8501 170.993 32.5818C169.725 31.3135 169.091 29.6376 169.091 27.5539C169.091 25.0475 169.997 23.1904 171.809 21.9825C173.651 20.7443 176.142 20.1253 179.283 20.1253H183.042V18.6305C183.042 17.483 182.74 16.5771 182.136 15.9127C181.532 15.2182 180.521 14.8709 179.101 14.8709C177.773 14.8709 176.716 15.1578 175.931 15.7315C175.145 16.3053 174.496 16.9545 173.983 17.6793L169.997 14.1462C170.963 12.7269 172.171 11.6247 173.62 10.8395C175.1 10.0242 177.093 9.61652 179.6 9.61652C182.982 9.61652 185.518 10.3564 187.209 11.836C188.9 13.3157 189.746 15.4749 189.746 18.3134V28.7316H191.966V33.9407H188.251ZM178.965 29.8187C180.083 29.8187 181.034 29.5772 181.819 29.094C182.634 28.6108 183.042 27.8257 183.042 26.7386V23.9302H179.781C177.154 23.9302 175.84 24.821 175.84 26.6027V27.2821C175.84 28.1579 176.112 28.8071 176.655 29.2299C177.199 29.6225 177.969 29.8187 178.965 29.8187Z" fill="#232323"/>
<path d="M196.782 34.4843C195.816 34.4843 195.106 34.2427 194.653 33.7595C194.23 33.2764 194.019 32.6422 194.019 31.8571V31.2682C194.019 30.4831 194.23 29.8489 194.653 29.3658C195.106 28.8826 195.816 28.641 196.782 28.641C197.749 28.641 198.443 28.8826 198.866 29.3658C199.319 29.8489 199.545 30.4831 199.545 31.2682V31.8571C199.545 32.6422 199.319 33.2764 198.866 33.7595C198.443 34.2427 197.749 34.4843 196.782 34.4843Z" fill="#232323"/>
<path d="M221.303 33.9407C219.944 33.9407 218.963 33.5783 218.359 32.8536C217.785 32.1289 217.423 31.2229 217.272 30.1358H217.045C216.532 31.5853 215.686 32.6724 214.509 33.3972C213.331 34.1219 211.927 34.4843 210.296 34.4843C207.82 34.4843 205.887 33.8501 204.498 32.5818C203.139 31.3135 202.46 29.5923 202.46 27.418C202.46 25.2136 203.26 23.5225 204.861 22.3448C206.491 21.1671 209.013 20.5783 212.425 20.5783H217.045V18.2681C217.045 16.6073 216.592 15.339 215.686 14.4632C214.78 13.5875 213.391 13.1496 211.519 13.1496C210.1 13.1496 208.907 13.4667 207.941 14.1009C207.005 14.735 206.219 15.5806 205.585 16.6375L203.411 14.5991C204.045 13.3308 205.057 12.2588 206.446 11.3831C207.835 10.4772 209.586 10.0242 211.7 10.0242C214.539 10.0242 216.743 10.7187 218.314 12.1078C219.884 13.4969 220.669 15.4296 220.669 17.9058V30.77H223.341V33.9407H221.303ZM210.885 31.4041C211.791 31.4041 212.621 31.2984 213.376 31.087C214.131 30.8757 214.78 30.5737 215.324 30.1811C215.868 29.7885 216.29 29.3356 216.592 28.8222C216.894 28.3089 217.045 27.7502 217.045 27.1462V23.296H212.244C210.16 23.296 208.635 23.598 207.669 24.202C206.733 24.8059 206.265 25.6817 206.265 26.8292V27.7804C206.265 28.9279 206.672 29.8187 207.488 30.4529C208.333 31.087 209.466 31.4041 210.885 31.4041Z" fill="#232323"/>
<path d="M225.796 33.9407V10.5677H229.419V14.8709H229.646C230.069 13.7536 230.824 12.7571 231.911 11.8813C232.998 11.0056 234.493 10.5677 236.395 10.5677H237.799V14.1915H235.67C233.707 14.1915 232.167 14.5689 231.05 15.3239C229.963 16.0486 229.419 16.9696 229.419 18.087V33.9407H225.796Z" fill="#232323"/>
</svg>
