<svg width="69" height="69" viewBox="0 0 69 69" fill="none" xmlns="http://www.w3.org/2000/svg">
<path d="M46.278 51.9983L50.5912 17.062H17.6129L21.9352 51.9994C22.1945 54.0961 23.976 55.6707 26.0887 55.6707H42.1244C44.2375 55.6707 46.0191 54.0955 46.278 51.9983Z" stroke="#F5F5F5" stroke-width="2.09259" stroke-linecap="round" stroke-linejoin="round"/>
<path d="M16 15.6812C16 14.2004 17.2004 13 18.6812 13H50.3188C51.7996 13 53 14.2004 53 15.6812V15.6812C53 16.4215 52.3998 17.0217 51.6594 17.0217H17.3406C16.6002 17.0217 16 16.4215 16 15.6812V15.6812Z" stroke="#F5F5F5" stroke-width="2.09259" stroke-linecap="round" stroke-linejoin="round"/>
<path d="M34.5013 21.8823V50.8388" stroke="#F5F5F5" stroke-width="2.09259" stroke-linecap="round" stroke-linejoin="round"/>
<path d="M43.3501 21.8823L40.8044 50.7267" stroke="#F5F5F5" stroke-width="2.09259" stroke-linecap="round" stroke-linejoin="round"/>
<path d="M25.658 21.8875L28.2037 50.7319" stroke="#F5F5F5" stroke-width="2.09259" stroke-linecap="round" stroke-linejoin="round"/>
</svg>
