<svg width="48" height="49" viewBox="0 0 48 49" fill="none" xmlns="http://www.w3.org/2000/svg">
<path d="M32.3961 15.6039C32.5694 15.7915 32.6657 16.0375 32.6657 16.2928C32.6657 16.5482 32.5694 16.7942 32.3961 16.9818L15.9818 33.3961C15.7956 33.5634 15.5552 33.6578 15.3049 33.662C15.0467 33.6614 14.7975 33.5669 14.6039 33.3961C14.4306 33.2085 14.3343 32.9625 14.3343 32.7072C14.3343 32.4518 14.4306 32.2058 14.6039 32.0182L31.0182 15.6039C31.2058 15.4306 31.4518 15.3343 31.7072 15.3343C31.9625 15.3343 32.2085 15.4306 32.3961 15.6039ZM26.9086 36.1278L20.0914 42.9691C18.0649 44.8162 15.4045 45.8114 12.6633 45.748C9.92198 45.6845 7.31056 44.5672 5.37166 42.6283C3.43276 40.6894 2.31549 38.078 2.25203 35.3367C2.18856 32.5954 3.18378 29.9351 5.03088 27.9086L11.8722 21.0914C11.9636 21.0015 12.0361 20.8942 12.0856 20.7759C12.1352 20.6576 12.1607 20.5307 12.1607 20.4025C12.1607 20.2742 12.1352 20.1473 12.0856 20.029C12.0361 19.9107 11.9636 19.8035 11.8722 19.7135C11.7843 19.6228 11.6791 19.5508 11.5628 19.5016C11.4465 19.4523 11.3216 19.427 11.1953 19.427C11.069 19.427 10.9441 19.4523 10.8278 19.5016C10.7115 19.5508 10.6063 19.6228 10.5184 19.7135L3.67712 26.5548C1.32257 28.9119 0 32.1072 0 35.4388C0 38.7705 1.32257 41.9658 3.67712 44.3229C6.03418 46.6774 9.22954 48 12.5612 48C15.8928 48 19.0881 46.6774 21.4452 44.3229L28.2865 37.4816C28.3771 37.3937 28.4492 37.2885 28.4984 37.1722C28.5477 37.0559 28.573 36.9309 28.573 36.8047C28.573 36.6784 28.5477 36.5535 28.4984 36.4372C28.4492 36.3209 28.3771 36.2157 28.2865 36.1278C28.1965 36.0364 28.0893 35.9639 27.971 35.9144C27.8527 35.8648 27.7258 35.8393 27.5975 35.8393C27.4693 35.8393 27.3424 35.8648 27.2241 35.9144C27.1058 35.9639 26.9985 36.0364 26.9086 36.1278ZM43.3229 4.67712C40.9658 2.32257 37.7705 1 34.4388 1C31.1072 1 27.9119 2.32257 25.5548 4.67712L18.7135 11.5184C18.6228 11.6063 18.5508 11.7115 18.5016 11.8278C18.4523 11.9441 18.427 12.069 18.427 12.1953C18.427 12.3216 18.4523 12.4465 18.5016 12.5628C18.5508 12.6791 18.6228 12.7843 18.7135 12.8722C18.8035 12.9636 18.9107 13.0361 19.029 13.0856C19.1473 13.1352 19.2742 13.1607 19.4025 13.1607C19.5307 13.1607 19.6576 13.1352 19.7759 13.0856C19.8942 13.0361 20.0015 12.9636 20.0914 12.8722L26.9086 6.03088C28.9351 4.18378 31.5954 3.18856 34.3367 3.25203C37.078 3.31549 39.6894 4.43276 41.6283 6.37166C43.5672 8.31056 44.6845 10.922 44.748 13.6633C44.8114 16.4045 43.8162 19.0649 41.9691 21.0914L35.1278 27.9086C34.9983 28.0467 34.911 28.2191 34.8764 28.4053C34.8418 28.5915 34.8612 28.7837 34.9324 28.9592C35.0036 29.1347 35.1236 29.2861 35.2782 29.3955C35.4328 29.5049 35.6155 29.5678 35.8047 29.5766C35.9314 29.5775 36.057 29.5523 36.1735 29.5023C36.29 29.4524 36.3949 29.3789 36.4816 29.2865L43.3229 22.4452C45.6774 20.0881 47 16.8928 47 13.5612C47 10.2295 45.6774 7.03418 43.3229 4.67712Z" fill="#F5F5F5"/>
<line x1="5.27941" y1="5.76953" x2="11.2461" y2="11.7362" stroke="#F5F5F5" stroke-width="1.5" stroke-linecap="round"/>
<line x1="12.91" y1="1.54492" x2="14.9636" y2="9.72936" stroke="#F5F5F5" stroke-width="1.5" stroke-linecap="round"/>
<line x1="0.934315" y1="13.4979" x2="9.01451" y2="15.9296" stroke="#F5F5F5" stroke-width="1.5" stroke-linecap="round"/>
<line x1="42.1386" y1="43.0937" x2="36.1719" y2="37.1271" stroke="#F5F5F5" stroke-width="1.5" stroke-linecap="round"/>
<line x1="34.508" y1="47.3184" x2="32.4544" y2="39.1339" stroke="#F5F5F5" stroke-width="1.5" stroke-linecap="round"/>
<line x1="46.5813" y1="35.3653" x2="38.5011" y2="32.9337" stroke="#F5F5F5" stroke-width="1.5" stroke-linecap="round"/>
</svg>
