<svg width="51" height="51" viewBox="0 0 51 51" fill="none" xmlns="http://www.w3.org/2000/svg">
<path d="M33.7634 16.2646L33.75 16.25L33.7354 16.2366C33.4554 15.978 33.0883 15.8343 32.7072 15.8343C32.326 15.8343 31.9589 15.978 31.6789 16.2366L31.6716 16.2433L31.6646 16.2503L15.2503 32.6646L15.2433 32.6716L15.2366 32.6789C14.978 32.9589 14.8343 33.326 14.8343 33.7072C14.8343 34.0883 14.978 34.4554 15.2366 34.7354L15.254 34.7542L15.2732 34.7711C15.5579 35.0222 15.9242 35.1611 16.3038 35.162L16.3038 35.1621L16.3134 35.162C16.6841 35.1557 17.04 35.0158 17.3159 34.7681L17.3259 34.7592L17.3354 34.7497L33.7497 18.3354L33.7567 18.3284L33.7634 18.3211C34.022 18.0411 34.1657 17.674 34.1657 17.2928C34.1657 16.9117 34.022 16.5446 33.7634 16.2646ZM4.32357 27.2013L4.32338 27.2014C1.87517 29.6523 0.5 32.9747 0.5 36.4388C0.5 39.903 1.87517 43.2254 4.32338 45.6762L4.32376 45.6766C6.77457 48.1248 10.097 49.5 13.5612 49.5C17.0253 49.5 20.3477 48.1248 22.7986 45.6766L22.7987 45.6764L29.6376 38.8376C29.7749 38.7037 29.8841 38.5437 29.9589 38.3671C30.0342 38.1892 30.073 37.9979 30.073 37.8047C30.073 37.6115 30.0342 37.4202 29.9589 37.2423C29.8843 37.0661 29.7755 36.9066 29.6387 36.7729C29.5031 36.6362 29.3418 36.5276 29.1641 36.4532C28.9847 36.378 28.7921 36.3393 28.5975 36.3393C28.403 36.3393 28.2104 36.378 28.031 36.4532C27.852 36.5281 27.6897 36.6378 27.5534 36.7759C27.553 36.7762 27.5527 36.7766 27.5523 36.777L20.7458 43.6076C18.8154 45.3629 16.2836 46.3085 13.6748 46.2481C11.0621 46.1876 8.57317 45.1228 6.72521 43.2748C4.87725 41.4268 3.81238 38.9379 3.75189 36.3252C3.6915 33.7164 4.63708 31.1846 6.39241 29.2542L13.223 22.4477C13.2234 22.4473 13.2238 22.4469 13.2242 22.4465C13.3623 22.3102 13.4719 22.148 13.5468 21.969C13.622 21.7896 13.6607 21.597 13.6607 21.4025C13.6607 21.2079 13.622 21.0153 13.5468 20.8359C13.4724 20.6582 13.3638 20.4969 13.2271 20.3613C13.0934 20.2245 12.9339 20.1157 12.7577 20.0411C12.5798 19.9658 12.3885 19.927 12.1953 19.927C12.0021 19.927 11.8108 19.9658 11.6329 20.0411C11.4563 20.1159 11.2964 20.2251 11.1625 20.3623L4.32357 27.2013ZM44.6766 5.32376L44.6762 5.32338C42.2254 2.87517 38.903 1.5 35.4388 1.5C31.9747 1.5 28.6523 2.87517 26.2014 5.32338L26.2013 5.32357L19.3623 12.1625C19.2251 12.2964 19.1159 12.4563 19.0411 12.6329C18.9658 12.8108 18.927 13.0021 18.927 13.1953C18.927 13.3885 18.9658 13.5798 19.0411 13.7577C19.1157 13.9339 19.2245 14.0934 19.3613 14.2271C19.4969 14.3638 19.6582 14.4724 19.8359 14.5468C20.0153 14.622 20.2079 14.6607 20.4025 14.6607C20.597 14.6607 20.7896 14.622 20.969 14.5468C21.148 14.4719 21.3102 14.3623 21.4465 14.2242C21.4469 14.2238 21.4473 14.2234 21.4477 14.223L28.2542 7.39241C30.1846 5.63708 32.7164 4.6915 35.3252 4.75189C37.9379 4.81238 40.4268 5.87725 42.2748 7.72521C44.1228 9.57317 45.1876 12.0621 45.2481 14.6748C45.3085 17.2836 44.3629 19.8154 42.6076 21.7458L35.7749 28.5544L35.7689 28.5604L35.7631 28.5666C35.5682 28.7744 35.4369 29.0337 35.3848 29.3139C35.3327 29.594 35.362 29.8832 35.4691 30.1472C35.5762 30.4112 35.7568 30.639 35.9894 30.8036C36.2219 30.9683 36.4968 31.0628 36.7814 31.076L36.7912 31.0765L36.8009 31.0766C36.9966 31.0781 37.1905 31.039 37.3704 30.9619C37.5476 30.886 37.7074 30.7747 37.8401 30.635L44.6764 23.7987L44.6766 23.7986C47.1248 21.3477 48.5 18.0253 48.5 14.5612C48.5 11.097 47.1248 7.77457 44.6766 5.32376Z" fill="#232323" stroke="#232323"/>
<line x1="6.98652" y1="6.76953" x2="12.2461" y2="12.0291" stroke="#232323" stroke-width="2.5" stroke-linecap="round"/>
<line x1="15.5166" y1="1.9082" x2="17.3269" y2="9.12271" stroke="#232323" stroke-width="2.5" stroke-linecap="round"/>
<line x1="1.55719" y1="15.1632" x2="8.6798" y2="17.3067" stroke="#232323" stroke-width="2.5" stroke-linecap="round"/>
<line x1="44.2596" y1="45.0273" x2="39" y2="39.7678" stroke="#232323" stroke-width="2.5" stroke-linecap="round"/>
<line x1="34.9013" y1="49.7305" x2="33.0911" y2="42.516" stroke="#232323" stroke-width="2.5" stroke-linecap="round"/>
<line x1="48.9584" y1="34.7" x2="41.8358" y2="32.5565" stroke="#232323" stroke-width="2.5" stroke-linecap="round"/>
</svg>
