<svg width="44" height="49" viewBox="0 0 44 49" fill="none" xmlns="http://www.w3.org/2000/svg">
<path d="M1 26.5417C1.26522 26.5417 1.51957 26.4341 1.70711 26.2427C1.89464 26.0512 2 25.7916 2 25.5208V3.06253C2 2.79179 2.10536 2.53214 2.29289 2.34069C2.48043 2.14925 2.73478 2.0417 3 2.0417H26V15.3125C26 15.5833 26.1054 15.8429 26.2929 16.0344C26.4804 16.2258 26.7348 16.3334 27 16.3334H40V25.5208C40 25.7916 40.1054 26.0512 40.2929 26.2427C40.4804 26.4341 40.7348 26.5417 41 26.5417C41.2652 26.5417 41.5196 26.4341 41.7071 26.2427C41.8946 26.0512 42 25.7916 42 25.5208V15.338C41.9902 15.0626 41.8838 14.7999 41.7 14.5979L27.7 0.331803C27.6147 0.226972 27.5077 0.142817 27.3866 0.0854353C27.2655 0.0280534 27.1335 -0.0011185 27 3.27987e-05H3C2.20435 3.27987e-05 1.44129 0.322688 0.878679 0.897018C0.31607 1.47135 0 2.25031 0 3.06253V25.5208C0 25.7916 0.105357 26.0512 0.292893 26.2427C0.48043 26.4341 0.734784 26.5417 1 26.5417ZM28 3.49638L38.575 14.2917H28V3.49638ZM5 34.7083H1C0.734784 34.7083 0.48043 34.8159 0.292893 35.0073C0.105357 35.1988 0 35.4584 0 35.7292V47.9792C0 48.2499 0.105357 48.5096 0.292893 48.701C0.48043 48.8924 0.734784 49 1 49C1.26522 49 1.51957 48.8924 1.70711 48.701C1.89464 48.5096 2 48.2499 2 47.9792V44.9167H5C6.32608 44.9167 7.59785 44.3789 8.53553 43.4217C9.47322 42.4645 10 41.1662 10 39.8125C10 38.4588 9.47322 37.1605 8.53553 36.2033C7.59785 35.2461 6.32608 34.7083 5 34.7083ZM5 42.875H2V36.75H5C5.79565 36.75 6.55871 37.0727 7.12132 37.647C7.68393 38.2213 8 39.0003 8 39.8125C8 40.6247 7.68393 41.4037 7.12132 41.978C6.55871 42.5523 5.79565 42.875 5 42.875ZM44 35.7292C44 35.9999 43.8946 36.2596 43.7071 36.451C43.5196 36.6425 43.2652 36.75 43 36.75H37V41.8542H42C42.2652 41.8542 42.5196 41.9617 42.7071 42.1532C42.8946 42.3446 43 42.6043 43 42.875C43 43.1457 42.8946 43.4054 42.7071 43.5968C42.5196 43.7883 42.2652 43.8958 42 43.8958H37V47.9792C37 48.2499 36.8946 48.5096 36.7071 48.701C36.5196 48.8924 36.2652 49 36 49C35.7348 49 35.4804 48.8924 35.2929 48.701C35.1054 48.5096 35 48.2499 35 47.9792V35.7292C35 35.4584 35.1054 35.1988 35.2929 35.0073C35.4804 34.8159 35.7348 34.7083 36 34.7083H43C43.2652 34.7083 43.5196 34.8159 43.7071 35.0073C43.8946 35.1988 44 35.4584 44 35.7292ZM21 34.7083H17.5C17.2348 34.7083 16.9804 34.8159 16.7929 35.0073C16.6054 35.1988 16.5 35.4584 16.5 35.7292V47.9792C16.5 48.2499 16.6054 48.5096 16.7929 48.701C16.9804 48.8924 17.2348 49 17.5 49H21C22.8565 49 24.637 48.2471 25.9497 46.907C27.2625 45.5669 28 43.7494 28 41.8542C28 39.959 27.2625 38.1414 25.9497 36.8013C24.637 35.4612 22.8565 34.7083 21 34.7083ZM21 46.9583H18.5V36.75H21C22.3261 36.75 23.5979 37.2878 24.5355 38.245C25.4732 39.2022 26 40.5005 26 41.8542C26 43.2079 25.4732 44.5061 24.5355 45.4634C23.5979 46.4206 22.3261 46.9583 21 46.9583Z" fill="#F5F5F5"/>
</svg>
