<svg width="46" height="51" viewBox="0 0 46 51" fill="none" xmlns="http://www.w3.org/2000/svg">
<path d="M26.5 3.5417H4C3.87076 3.5417 3.74467 3.59401 3.65007 3.69058C3.55513 3.7875 3.5 3.92111 3.5 4.06253V26.5208C3.5 26.9209 3.34442 27.3066 3.06429 27.5926C2.78381 27.8789 2.40119 28.0417 2 28.0417C1.59881 28.0417 1.21619 27.8789 0.935714 27.5926C0.655584 27.3066 0.5 26.9209 0.5 26.5208V4.06253C0.5 3.12099 0.866297 2.21598 1.5215 1.54713C2.17705 0.877925 3.06838 0.500033 4 0.500033H27.9981H28V1.00003C28.1335 0.998881 28.2655 1.02805 28.3866 1.08544C28.5077 1.14282 28.6147 1.22697 28.7 1.3318L26.5 3.5417ZM26.5 3.5417V16.3125C26.5 16.7126 26.6556 17.0983 26.9357 17.3843C27.2162 17.6706 27.5988 17.8334 28 17.8334H40.5V26.5208C40.5 26.9209 40.6556 27.3066 40.9357 27.5926C41.2162 27.8789 41.5988 28.0417 42 28.0417C42.4012 28.0417 42.7838 27.8789 43.0643 27.5926C43.3444 27.3066 43.5 26.9209 43.5 26.5208V16.338V16.3292L43.4997 16.3203C43.4858 15.9278 43.3341 15.5518 43.0698 15.2614L43.0635 15.2545L43.0569 15.2477L29.0714 0.996401L26.5 3.5417ZM29.5 5.72131L38.3853 14.7917H29.5V5.72131ZM6 35.2083H2C1.59881 35.2083 1.21619 35.3711 0.935714 35.6574C0.655584 35.9434 0.5 36.3291 0.5 36.7292V48.9792C0.5 49.3792 0.655584 49.7649 0.935714 50.0509C1.21619 50.3372 1.59881 50.5 2 50.5C2.40119 50.5 2.78381 50.3372 3.06429 50.0509C3.34442 49.7649 3.5 49.3792 3.5 48.9792V46.4167H6C7.46206 46.4167 8.86209 45.8237 9.89271 44.7716C10.923 43.7198 11.5 42.2955 11.5 40.8125C11.5 39.3295 10.923 37.9052 9.89271 36.8534C8.86209 35.8013 7.46206 35.2083 6 35.2083ZM6 43.375H3.5V38.25H6C6.65968 38.25 7.29447 38.5174 7.76414 38.9969C8.23416 39.4767 8.5 40.1296 8.5 40.8125C8.5 41.4954 8.23416 42.1483 7.76414 42.6281C7.29447 43.1076 6.65968 43.375 6 43.375ZM45.0643 37.8009C45.3444 37.5149 45.5 37.1292 45.5 36.7292C45.5 36.3291 45.3444 35.9434 45.0643 35.6574C44.7838 35.3711 44.4012 35.2083 44 35.2083H37C36.5988 35.2083 36.2162 35.3711 35.9357 35.6574C35.6556 35.9434 35.5 36.3291 35.5 36.7292V48.9792C35.5 49.3792 35.6556 49.7649 35.9357 50.0509C36.2162 50.3372 36.5988 50.5 37 50.5C37.4012 50.5 37.7838 50.3372 38.0643 50.0509C38.3444 49.7649 38.5 49.3792 38.5 48.9792V45.3958H43C43.4012 45.3958 43.7838 45.233 44.0643 44.9467C44.3444 44.6608 44.5 44.2751 44.5 43.875C44.5 43.4749 44.3444 43.0892 44.0643 42.8033C43.7838 42.517 43.4012 42.3542 43 42.3542H38.5V38.25H44C44.4012 38.25 44.7838 38.0872 45.0643 37.8009ZM22 35.2083H18.5C18.0988 35.2083 17.7162 35.3711 17.4357 35.6574C17.1556 35.9434 17 36.3291 17 36.7292V48.9792C17 49.3792 17.1556 49.7649 17.4357 50.0509C17.7162 50.3372 18.0988 50.5 18.5 50.5H22C23.9925 50.5 25.9012 49.6919 27.3069 48.2569C28.7123 46.8223 29.5 44.8787 29.5 42.8542C29.5 40.8297 28.7123 38.886 27.3069 37.4514C25.9012 36.0164 23.9925 35.2083 22 35.2083ZM22 47.4583H20V38.25H22C23.1901 38.25 24.3336 38.7325 25.1784 39.5949C26.0234 40.4576 26.5 41.6298 26.5 42.8542C26.5 44.0786 26.0234 45.2508 25.1784 46.1135C24.3336 46.9758 23.1901 47.4583 22 47.4583Z" fill="#232323" stroke="#232323"/>
</svg>
