<svg width="69" height="69" viewBox="0 0 69 69" fill="none" xmlns="http://www.w3.org/2000/svg">
<g clip-path="url(#clip0_1701_725)">
<path d="M34.5 50.8327C31.1046 50.8326 27.7937 49.7744 25.0277 47.8053C22.2617 45.8361 20.1781 43.0539 19.0667 39.8455C17.9553 36.6372 17.8714 33.1623 18.8267 29.9041C19.782 26.6459 21.7289 23.7664 24.3967 21.666M34.5 18.166C37.8954 18.1661 41.2063 19.2243 43.9723 21.1934C46.7383 23.1626 48.8219 25.9448 49.9333 29.1532C51.0447 32.3615 51.1285 35.8364 50.1733 39.0946C49.218 42.3528 47.2711 45.2323 44.6033 47.3327M43.8333 40.3327V48.4994H52M17 20.4993H25.1667V28.666" stroke="#F5F5F5" stroke-width="2.15"/>
</g>
<defs>
<clipPath id="clip0_1701_725">
<rect width="35" height="35" fill="white" transform="translate(17 17)"/>
</clipPath>
</defs>
</svg>
