<svg width="53" height="53" viewBox="0 0 53 53" fill="none" xmlns="http://www.w3.org/2000/svg">
<path d="M26.5115 1C22.08 1.00476 17.7259 2.16223 13.8775 4.35861C10.029 6.55499 6.81869 9.71466 4.56212 13.527C2.30555 17.3393 1.08042 21.673 1.00719 26.1019C0.933953 30.5309 2.01514 34.9027 4.14445 38.7874L1 52L14.2185 48.857C17.6279 50.7264 21.4197 51.792 25.3041 51.9725C29.1886 52.1529 33.0629 51.4434 36.631 49.8981C40.1991 48.3528 43.3666 46.0127 45.8914 43.0565C48.4162 40.1003 50.2315 36.6063 51.1985 32.8415C52.1656 29.0767 52.2588 25.1408 51.4711 21.3345C50.6834 17.5282 49.0356 13.9523 46.6536 10.8799C44.2716 7.80763 41.2185 5.32025 37.7275 3.60789C34.2366 1.89553 30.4002 1.00351 26.5115 1ZM13.7558 12.5877H20.7091C21.0238 12.5877 21.3257 12.7126 21.5482 12.9351C21.7707 13.1575 21.8957 13.4592 21.8957 13.7737C21.8568 15.3554 22.1227 16.9299 22.6789 18.4112C22.9184 18.907 22.9711 19.4726 22.8272 20.0041C22.6834 20.5357 22.3527 20.9976 21.8957 21.3051L19.4632 23.6772C20.5418 25.7825 21.9521 27.7007 23.64 29.3584C25.285 31.073 27.1963 32.5109 29.3 33.6163L31.6732 31.1849C32.8598 29.9988 33.4056 29.9988 34.5684 30.4021C36.0504 30.958 37.6255 31.2238 39.208 31.1849C39.518 31.1993 39.8115 31.3289 40.031 31.5483C40.2505 31.7677 40.3801 32.061 40.3946 32.3709V39.3212C40.3801 39.6311 40.2505 39.9244 40.031 40.1438C39.8115 40.3632 39.518 40.4928 39.208 40.5072C32.228 40.2032 25.6117 37.311 20.6498 32.3946C15.7236 27.4402 12.8286 20.8238 12.5336 13.8449C12.5364 13.5184 12.665 13.2056 12.8926 12.9715C13.1202 12.7373 13.4294 12.5999 13.7558 12.5877Z" stroke="#F5F5F5" stroke-width="2" stroke-linecap="round" stroke-linejoin="round"/>
</svg>
