<svg width="262" height="52" viewBox="0 0 262 52" fill="none" xmlns="http://www.w3.org/2000/svg">
<rect width="262" height="52" rx="20" fill="#F5F5F5"/>
<path d="M32.354 33.216C31.526 33.216 30.776 33.084 30.104 32.82C29.444 32.544 28.874 32.136 28.394 31.596C27.926 31.056 27.566 30.39 27.314 29.598C27.062 28.794 26.936 27.864 26.936 26.808C26.936 25.752 27.062 24.816 27.314 24C27.566 23.172 27.926 22.482 28.394 21.93C28.874 21.366 29.444 20.94 30.104 20.652C30.776 20.364 31.526 20.22 32.354 20.22C33.482 20.22 34.418 20.46 35.162 20.94C35.906 21.42 36.5 22.146 36.944 23.118L34.91 24.198C34.73 23.634 34.436 23.184 34.028 22.848C33.62 22.5 33.062 22.326 32.354 22.326C31.466 22.326 30.758 22.626 30.23 23.226C29.714 23.826 29.456 24.666 29.456 25.746V27.726C29.456 28.818 29.714 29.658 30.23 30.246C30.758 30.822 31.466 31.11 32.354 31.11C33.062 31.11 33.638 30.918 34.082 30.534C34.538 30.15 34.868 29.676 35.072 29.112L36.998 30.246C36.542 31.182 35.936 31.914 35.18 32.442C34.424 32.958 33.482 33.216 32.354 33.216ZM42.6068 33.216C41.9348 33.216 41.3288 33.102 40.7888 32.874C40.2608 32.646 39.8048 32.316 39.4208 31.884C39.0488 31.452 38.7608 30.936 38.5568 30.336C38.3528 29.724 38.2508 29.04 38.2508 28.284C38.2508 27.528 38.3528 26.85 38.5568 26.25C38.7608 25.65 39.0488 25.14 39.4208 24.72C39.8048 24.288 40.2608 23.958 40.7888 23.73C41.3288 23.502 41.9348 23.388 42.6068 23.388C43.2788 23.388 43.8848 23.502 44.4248 23.73C44.9648 23.958 45.4208 24.288 45.7928 24.72C46.1768 25.14 46.4708 25.65 46.6748 26.25C46.8788 26.85 46.9808 27.528 46.9808 28.284C46.9808 29.04 46.8788 29.724 46.6748 30.336C46.4708 30.936 46.1768 31.452 45.7928 31.884C45.4208 32.316 44.9648 32.646 44.4248 32.874C43.8848 33.102 43.2788 33.216 42.6068 33.216ZM42.6068 31.362C43.2188 31.362 43.6988 31.176 44.0468 30.804C44.3948 30.432 44.5688 29.886 44.5688 29.166V27.42C44.5688 26.712 44.3948 26.172 44.0468 25.8C43.6988 25.428 43.2188 25.242 42.6068 25.242C42.0068 25.242 41.5328 25.428 41.1848 25.8C40.8368 26.172 40.6628 26.712 40.6628 27.42V29.166C40.6628 29.886 40.8368 30.432 41.1848 30.804C41.5328 31.176 42.0068 31.362 42.6068 31.362ZM49.0234 33V23.604H51.3274V25.17H51.4174C51.5974 24.678 51.8854 24.258 52.2814 23.91C52.6774 23.562 53.2294 23.388 53.9374 23.388C54.5854 23.388 55.1434 23.544 55.6114 23.856C56.0794 24.168 56.4274 24.642 56.6554 25.278H56.6914C56.8594 24.75 57.1894 24.306 57.6814 23.946C58.1854 23.574 58.8154 23.388 59.5714 23.388C60.4954 23.388 61.2034 23.706 61.6954 24.342C62.1994 24.978 62.4514 25.884 62.4514 27.06V33H60.1474V27.294C60.1474 25.95 59.6434 25.278 58.6354 25.278C58.4074 25.278 58.1854 25.314 57.9694 25.386C57.7654 25.446 57.5794 25.542 57.4114 25.674C57.2554 25.794 57.1294 25.95 57.0334 26.142C56.9374 26.322 56.8894 26.538 56.8894 26.79V33H54.5854V27.294C54.5854 25.95 54.0814 25.278 53.0734 25.278C52.8574 25.278 52.6414 25.314 52.4254 25.386C52.2214 25.446 52.0354 25.542 51.8674 25.674C51.7114 25.794 51.5794 25.95 51.4714 26.142C51.3754 26.322 51.3274 26.538 51.3274 26.79V33H49.0234ZM65.0019 23.604H67.3059V25.152H67.3779C67.5459 24.612 67.8639 24.186 68.3319 23.874C68.7999 23.55 69.3459 23.388 69.9699 23.388C71.1699 23.388 72.0819 23.814 72.7059 24.666C73.3419 25.506 73.6599 26.712 73.6599 28.284C73.6599 29.868 73.3419 31.086 72.7059 31.938C72.0819 32.79 71.1699 33.216 69.9699 33.216C69.3459 33.216 68.7999 33.054 68.3319 32.73C67.8759 32.406 67.5579 31.974 67.3779 31.434H67.3059V36.6H65.0019V23.604ZM69.2319 31.308C69.8319 31.308 70.3179 31.11 70.6899 30.714C71.0619 30.318 71.2479 29.784 71.2479 29.112V27.492C71.2479 26.82 71.0619 26.286 70.6899 25.89C70.3179 25.482 69.8319 25.278 69.2319 25.278C68.6799 25.278 68.2179 25.416 67.8459 25.692C67.4859 25.968 67.3059 26.334 67.3059 26.79V29.778C67.3059 30.27 67.4859 30.648 67.8459 30.912C68.2179 31.176 68.6799 31.308 69.2319 31.308ZM82.7069 33C82.2029 33 81.8009 32.856 81.5009 32.568C81.2129 32.268 81.0329 31.872 80.9609 31.38H80.8529C80.6969 31.992 80.3789 32.454 79.8989 32.766C79.4189 33.066 78.8249 33.216 78.1169 33.216C77.1569 33.216 76.4189 32.964 75.9029 32.46C75.3869 31.956 75.1289 31.284 75.1289 30.444C75.1289 29.472 75.4769 28.752 76.1729 28.284C76.8689 27.804 77.8589 27.564 79.1429 27.564H80.7449V26.88C80.7449 26.352 80.6069 25.944 80.3309 25.656C80.0549 25.368 79.6109 25.224 78.9989 25.224C78.4589 25.224 78.0209 25.344 77.6849 25.584C77.3609 25.812 77.0849 26.088 76.8569 26.412L75.4889 25.188C75.8369 24.648 76.2989 24.216 76.8749 23.892C77.4509 23.556 78.2129 23.388 79.1609 23.388C80.4329 23.388 81.3989 23.676 82.0589 24.252C82.7189 24.828 83.0489 25.656 83.0489 26.736V31.164H83.9849V33H82.7069ZM78.8909 31.542C79.4069 31.542 79.8449 31.428 80.2049 31.2C80.5649 30.972 80.7449 30.636 80.7449 30.192V28.95H79.2689C78.0689 28.95 77.4689 29.334 77.4689 30.102V30.408C77.4689 30.792 77.5889 31.08 77.8289 31.272C78.0809 31.452 78.4349 31.542 78.8909 31.542ZM85.8496 33V23.604H88.1536V25.548H88.2436C88.3036 25.296 88.3936 25.056 88.5136 24.828C88.6456 24.588 88.8136 24.378 89.0176 24.198C89.2216 24.018 89.4616 23.874 89.7376 23.766C90.0256 23.658 90.3556 23.604 90.7276 23.604H91.2316V25.782H90.5116C89.7316 25.782 89.1436 25.896 88.7476 26.124C88.3516 26.352 88.1536 26.724 88.1536 27.24V33H85.8496ZM95.9203 33C95.1283 33 94.5223 32.796 94.1023 32.388C93.6943 31.968 93.4903 31.374 93.4903 30.606V25.44H92.1043V23.604H92.8243C93.1723 23.604 93.4063 23.526 93.5263 23.37C93.6583 23.202 93.7243 22.956 93.7243 22.632V21.03H95.7943V23.604H97.7203V25.44H95.7943V31.164H97.5763V33H95.9203ZM100.871 22.236C100.391 22.236 100.043 22.128 99.8267 21.912C99.6227 21.696 99.5207 21.42 99.5207 21.084V20.724C99.5207 20.388 99.6227 20.112 99.8267 19.896C100.043 19.68 100.391 19.572 100.871 19.572C101.339 19.572 101.681 19.68 101.897 19.896C102.113 20.112 102.221 20.388 102.221 20.724V21.084C102.221 21.42 102.113 21.696 101.897 21.912C101.681 22.128 101.339 22.236 100.871 22.236ZM99.7187 23.604H102.023V33H99.7187V23.604ZM104.693 33V23.604H106.997V25.548H107.087C107.147 25.296 107.237 25.056 107.357 24.828C107.489 24.588 107.657 24.378 107.861 24.198C108.065 24.018 108.305 23.874 108.581 23.766C108.869 23.658 109.199 23.604 109.571 23.604H110.075V25.782H109.355C108.575 25.782 107.987 25.896 107.591 26.124C107.195 26.352 106.997 26.724 106.997 27.24V33H104.693ZM118.318 33C117.526 33 116.944 32.802 116.572 32.406C116.2 32.01 116.014 31.452 116.014 30.732V19.68H118.318V31.164H119.56V33H118.318ZM122.457 22.236C121.977 22.236 121.629 22.128 121.413 21.912C121.209 21.696 121.107 21.42 121.107 21.084V20.724C121.107 20.388 121.209 20.112 121.413 19.896C121.629 19.68 121.977 19.572 122.457 19.572C122.925 19.572 123.267 19.68 123.483 19.896C123.699 20.112 123.807 20.388 123.807 20.724V21.084C123.807 21.42 123.699 21.696 123.483 21.912C123.267 22.128 122.925 22.236 122.457 22.236ZM121.305 23.604H123.609V33H121.305V23.604ZM129.357 33.216C128.457 33.216 127.701 33.066 127.089 32.766C126.477 32.454 125.937 32.028 125.469 31.488L126.873 30.12C127.221 30.516 127.599 30.828 128.007 31.056C128.427 31.284 128.907 31.398 129.447 31.398C129.999 31.398 130.395 31.302 130.635 31.11C130.887 30.918 131.013 30.654 131.013 30.318C131.013 30.042 130.923 29.826 130.743 29.67C130.575 29.502 130.281 29.388 129.861 29.328L128.925 29.202C127.905 29.07 127.125 28.782 126.585 28.338C126.057 27.882 125.793 27.222 125.793 26.358C125.793 25.902 125.877 25.494 126.045 25.134C126.213 24.762 126.453 24.45 126.765 24.198C127.077 23.934 127.449 23.736 127.881 23.604C128.325 23.46 128.817 23.388 129.357 23.388C129.813 23.388 130.215 23.424 130.563 23.496C130.923 23.556 131.247 23.652 131.535 23.784C131.823 23.904 132.087 24.06 132.327 24.252C132.567 24.432 132.801 24.636 133.029 24.864L131.679 26.214C131.403 25.926 131.073 25.686 130.689 25.494C130.305 25.302 129.885 25.206 129.429 25.206C128.925 25.206 128.559 25.296 128.331 25.476C128.115 25.656 128.007 25.89 128.007 26.178C128.007 26.49 128.097 26.73 128.277 26.898C128.469 27.054 128.787 27.168 129.231 27.24L130.185 27.366C132.213 27.654 133.227 28.578 133.227 30.138C133.227 30.594 133.131 31.014 132.939 31.398C132.759 31.77 132.501 32.094 132.165 32.37C131.829 32.634 131.421 32.844 130.941 33C130.473 33.144 129.945 33.216 129.357 33.216ZM138.055 33C137.263 33 136.657 32.796 136.237 32.388C135.829 31.968 135.625 31.374 135.625 30.606V25.44H134.239V23.604H134.959C135.307 23.604 135.541 23.526 135.661 23.37C135.793 23.202 135.859 22.956 135.859 22.632V21.03H137.929V23.604H139.855V25.44H137.929V31.164H139.711V33H138.055ZM148.765 33C148.261 33 147.859 32.856 147.559 32.568C147.271 32.268 147.091 31.872 147.019 31.38H146.911C146.755 31.992 146.437 32.454 145.957 32.766C145.477 33.066 144.883 33.216 144.175 33.216C143.215 33.216 142.477 32.964 141.961 32.46C141.445 31.956 141.187 31.284 141.187 30.444C141.187 29.472 141.535 28.752 142.231 28.284C142.927 27.804 143.917 27.564 145.201 27.564H146.803V26.88C146.803 26.352 146.665 25.944 146.389 25.656C146.113 25.368 145.669 25.224 145.057 25.224C144.517 25.224 144.079 25.344 143.743 25.584C143.419 25.812 143.143 26.088 142.915 26.412L141.547 25.188C141.895 24.648 142.357 24.216 142.933 23.892C143.509 23.556 144.271 23.388 145.219 23.388C146.491 23.388 147.457 23.676 148.117 24.252C148.777 24.828 149.107 25.656 149.107 26.736V31.164H150.043V33H148.765ZM144.949 31.542C145.465 31.542 145.903 31.428 146.263 31.2C146.623 30.972 146.803 30.636 146.803 30.192V28.95H145.327C144.127 28.95 143.527 29.334 143.527 30.102V30.408C143.527 30.792 143.647 31.08 143.887 31.272C144.139 31.452 144.493 31.542 144.949 31.542Z" fill="#232323"/>
<path d="M219.744 21.7988H218C215.239 21.7988 213 24.0374 213 26.7988V33.999C213 36.7604 215.239 38.999 218 38.999H230.286C233.047 38.999 235.286 36.7604 235.286 33.9989V26.7988C235.286 24.0374 233.047 21.7988 230.286 21.7988H228.835" stroke="#232323" stroke-width="2" stroke-linecap="round"/>
<path d="M224.344 32.0098L224.344 13.2409" stroke="#232323" stroke-width="2" stroke-linecap="round"/>
<path d="M229.713 17.7539L224.348 12.9993L218.57 17.7539" stroke="#232323" stroke-width="2" stroke-linecap="round" stroke-linejoin="round"/>
</svg>
