<svg width="2469" height="341" viewBox="0 0 2469 341" fill="none" xmlns="http://www.w3.org/2000/svg">
<path d="M318.732 306.364V119.937C318.732 101.038 304.908 85.4893 287.352 83.4796C286.521 83.3894 285.755 83.0316 285.199 82.4733C284.643 81.915 284.334 81.1946 284.33 80.4474V34.4002H287.352V14.1973H255.182V34.4002H258.183V80.4474C258.185 81.193 257.88 81.9132 257.327 82.4719C256.774 83.0306 256.011 83.3891 255.182 83.4796C237.527 85.4893 223.801 101.109 223.801 119.937V306.364C219.692 307.103 215.993 309.085 213.331 311.975C210.669 314.866 209.205 318.488 209.188 322.23V333.777H333.346V322.23C333.329 318.488 331.865 314.866 329.203 311.975C326.54 309.085 322.842 307.103 318.732 306.364Z" fill="#FFAD93"/>
<path d="M285.127 14.1973H252.957V34.4178H285.127V14.1973Z" stroke="#232323" stroke-width="3.60403" stroke-miterlimit="10"/>
<path d="M316.494 306.372V119.945C316.494 101.046 302.67 85.4973 285.114 83.4876C284.283 83.3974 283.517 83.0396 282.961 82.4813C282.405 81.923 282.096 81.2026 282.092 80.4554V34.4082H255.945V80.4554C255.947 81.201 255.642 81.9212 255.089 82.4799C254.536 83.0386 253.773 83.397 252.944 83.4876C235.308 85.4973 221.563 101.117 221.563 119.945V306.372C217.453 307.111 213.755 309.093 211.093 311.983C208.43 314.874 206.967 318.496 206.949 322.238V333.785H331.108V322.238C331.09 318.496 329.627 314.874 326.964 311.983C324.302 309.093 320.604 307.111 316.494 306.372V306.372Z" stroke="#232323" stroke-width="3.60403" stroke-miterlimit="10"/>
<path d="M255.941 72.8555H282.088" stroke="#232323" stroke-width="3.60403" stroke-miterlimit="10"/>
<path d="M230.461 294.76C235.908 299.61 243.286 302.335 250.98 302.341H286.961C294.656 302.341 302.036 299.615 307.48 294.76L307.618 294.637" stroke="#232323" stroke-width="3.60403" stroke-miterlimit="10"/>
<path d="M302.295 110.998C300.128 108.658 297.415 106.767 294.345 105.458C291.276 104.148 287.923 103.452 284.522 103.418H253.576C250.173 103.45 246.82 104.145 243.75 105.454C240.68 106.764 237.968 108.656 235.802 110.998L235.684 111.122" stroke="#232323" stroke-width="3.60403" stroke-miterlimit="10"/>
<path d="M0.00216675 123.325C0.00105286 121.789 0.279205 120.268 0.821045 118.848C1.36287 117.429 2.15771 116.139 3.15984 115.052C4.16196 113.966 5.35228 113.105 6.66182 112.517C7.97137 111.93 9.37463 111.628 10.7919 111.629H61.766L29.7628 111.353C13.3151 103.405 3.00993 93.8551 4.76854 86.8374C7.2323 77.0661 32.2517 75.961 60.6443 84.3601C83.9734 91.2672 102.316 102.438 106.767 111.629H146.374C149.236 111.629 151.98 112.862 154.004 115.055C156.027 117.249 157.164 120.223 157.164 123.325C157.162 126.427 156.024 129.4 154.001 131.593C151.978 133.786 149.235 135.019 146.374 135.022V311.844C149.236 311.844 151.98 313.076 154.004 315.27C156.027 317.463 157.164 320.438 157.164 323.54C157.164 326.642 156.027 329.617 154.004 331.81C151.98 334.004 149.236 335.236 146.374 335.236H10.8176C7.95601 335.236 5.21147 334.004 3.18805 331.81C1.16463 329.617 0.0278931 326.642 0.0278931 323.54C0.0278931 320.438 1.16463 317.463 3.18805 315.27C5.21147 313.076 7.95601 311.844 10.8176 311.844V135.022C9.39853 135.025 7.99207 134.725 6.68007 134.139C5.36809 133.553 4.17606 132.692 3.17146 131.606C2.16685 130.519 1.36983 129.229 0.826019 127.808C0.282196 126.387 0.00216675 124.864 0.00216675 123.325Z" fill="#E4FFA9"/>
<path d="M12.9152 311.805H148.473C154.432 311.805 159.262 317.041 159.262 323.501C159.262 329.96 154.432 335.197 148.473 335.197H12.9152C6.95636 335.197 2.12555 329.96 2.12555 323.501C2.12555 317.041 6.95636 311.805 12.9152 311.805Z" stroke="#232323" stroke-width="3.60403" stroke-miterlimit="10"/>
<path d="M12.9152 111.625H148.473C154.432 111.625 159.262 116.862 159.262 123.321C159.262 129.781 154.432 135.017 148.473 135.017H12.9152C6.95636 135.017 2.12555 129.781 2.12555 123.321C2.12555 116.862 6.95636 111.625 12.9152 111.625Z" stroke="#232323" stroke-width="3.60403" stroke-miterlimit="10"/>
<path d="M148.476 135.02H12.918V311.805H148.476V135.02Z" stroke="#232323" stroke-width="3.60403" stroke-miterlimit="10"/>
<path d="M12.3714 160.148H80.9907C81.7913 160.148 82.5841 160.32 83.3237 160.652C84.0633 160.984 84.735 161.472 85.3008 162.086C85.8665 162.7 86.3151 163.429 86.6207 164.231C86.9264 165.033 87.0831 165.893 87.082 166.761V290.297C87.082 291.164 86.9244 292.023 86.6182 292.824C86.3121 293.625 85.8639 294.353 85.2983 294.966C84.7326 295.579 84.0611 296.066 83.322 296.398C82.583 296.729 81.7906 296.9 80.9907 296.9H13.1779" stroke="#232323" stroke-width="3.60403" stroke-miterlimit="10"/>
<path d="M109.016 112.026C104.912 102.761 86.3663 91.3688 62.7058 84.3972C34.3048 75.9981 9.28455 77.1033 6.8293 86.8745C5.06219 93.883 15.3759 103.452 31.8235 111.39" stroke="#232323" stroke-width="3.60403" stroke-miterlimit="10"/>
<path d="M172.125 65.7227C156.756 65.7227 142.016 71.9489 131.149 83.0316C120.281 94.1143 114.176 109.146 114.176 124.819V269.669C114.176 272.315 115.206 274.852 117.041 276.723C118.875 278.594 121.364 279.645 123.958 279.645H157.619V320.357C157.619 324.276 159.145 328.033 161.862 330.804C164.579 333.575 168.264 335.131 172.106 335.131C175.949 335.131 179.633 333.575 182.35 330.804C185.067 328.033 186.594 324.276 186.594 320.357V279.645H220.248C222.843 279.645 225.331 278.594 227.165 276.723C229 274.852 230.03 272.315 230.03 269.669V124.793C230.024 109.132 223.921 94.1142 213.064 83.0384C202.207 71.9625 187.482 65.7346 172.125 65.7227Z" fill="#D4A9FF"/>
<path d="M170.98 65.7288C186.35 65.7288 201.089 71.955 211.957 83.0377C222.824 94.1204 228.93 109.152 228.93 124.825V269.675C228.93 272.321 227.899 274.858 226.065 276.729C224.23 278.6 221.742 279.651 219.148 279.651H122.845C120.25 279.651 117.762 278.6 115.928 276.729C114.093 274.858 113.062 272.321 113.062 269.675V124.799C113.063 109.126 119.168 94.0948 130.035 83.012C140.903 71.9293 155.643 65.7031 171.012 65.7031L170.98 65.7288Z" stroke="#232323" stroke-width="3.60403" stroke-miterlimit="10"/>
<path d="M156.508 279.551H185.482V320.359C185.482 324.278 183.956 328.036 181.239 330.806C178.522 333.577 174.837 335.133 170.995 335.133C167.153 335.133 163.468 333.577 160.751 330.806C158.034 328.036 156.508 324.278 156.508 320.359V279.551Z" stroke="#232323" stroke-width="3.60403" stroke-miterlimit="10"/>
<path d="M188.844 222.984V139.247C188.844 126.862 180.838 116.822 170.968 116.822C161.097 116.822 153.098 126.862 153.098 139.247V222.984" stroke="#232323" stroke-width="3.60403" stroke-miterlimit="10"/>
<path d="M2460.7 175.996H2431.1V171.582C2431.1 170.47 2430.7 169.404 2429.97 168.617C2429.25 167.831 2428.27 167.389 2427.25 167.389H2422.32V160.91C2422.32 160.29 2422.09 159.695 2421.69 159.257C2421.28 158.818 2420.74 158.572 2420.17 158.572H2411.5V154.473H2414.46C2414.56 154.473 2414.66 154.451 2414.75 154.409C2414.85 154.368 2414.93 154.306 2415 154.229C2415.07 154.152 2415.12 154.061 2415.16 153.961C2415.2 153.86 2415.22 153.753 2415.22 153.644V139.072C2415.22 138.855 2415.14 138.647 2415 138.493C2414.86 138.34 2414.66 138.254 2414.46 138.254H2405.98C2405.78 138.254 2405.59 138.34 2405.45 138.493C2405.3 138.647 2405.23 138.855 2405.23 139.072V153.634C2405.22 153.742 2405.24 153.85 2405.28 153.95C2405.32 154.05 2405.37 154.142 2405.44 154.219C2405.51 154.296 2405.6 154.357 2405.69 154.399C2405.78 154.441 2405.88 154.462 2405.98 154.462H2408.95V158.54H2400.28C2399.71 158.54 2399.17 158.787 2398.76 159.225C2398.36 159.664 2398.13 160.258 2398.13 160.878V167.357H2393.2C2392.18 167.357 2391.2 167.799 2390.48 168.586C2389.75 169.372 2389.35 170.439 2389.35 171.551V175.965H2359.75C2357.68 175.965 2355.7 176.858 2354.24 178.449C2352.78 180.039 2351.96 182.197 2351.96 184.446V328.076C2351.96 330.326 2352.78 332.483 2354.24 334.074C2355.7 335.664 2357.68 336.558 2359.75 336.558H2460.79C2462.85 336.558 2464.84 335.664 2466.3 334.074C2467.76 332.483 2468.58 330.326 2468.58 328.076V184.478C2468.58 183.356 2468.38 182.245 2467.98 181.21C2467.58 180.175 2467 179.236 2466.27 178.447C2465.53 177.658 2464.67 177.035 2463.71 176.614C2462.75 176.194 2461.73 175.984 2460.7 175.996Z" fill="#E8E8E8"/>
<rect x="2350.72" y="177.568" width="116.112" height="156.384" rx="4.69657" stroke="#232323" stroke-width="3.60403"/>
<rect x="2360.58" y="190.816" width="96.3835" height="129.904" rx="13.3614" stroke="#232323" stroke-width="3.60403"/>
<path d="M2389.43 167.473C2389.43 167.272 2389.6 167.109 2389.8 167.109H2429.38C2429.59 167.109 2429.75 167.272 2429.75 167.473V176.15C2429.75 176.351 2429.59 176.514 2429.38 176.514H2389.8C2389.6 176.514 2389.43 176.351 2389.43 176.15V167.473Z" stroke="#232323" stroke-width="3.60403"/>
<path d="M2399.76 159.666C2399.76 159.465 2399.92 159.302 2400.12 159.302H2421.62C2421.82 159.302 2421.99 159.465 2421.99 159.666V165.741C2421.99 165.942 2421.82 166.105 2421.62 166.105H2400.12C2399.92 166.105 2399.76 165.942 2399.76 165.741V159.666Z" stroke="#232323" stroke-width="3.60403"/>
<path d="M2407.5 140.408C2407.5 140.207 2407.66 140.044 2407.87 140.044H2413.4C2413.6 140.044 2413.76 140.207 2413.76 140.408V152.535C2413.76 152.736 2413.6 152.899 2413.4 152.899H2407.87C2407.66 152.899 2407.5 152.736 2407.5 152.535V140.408Z" stroke="#232323" stroke-width="3.60403"/>
<path d="M2412.15 143.901C2412.15 143.901 2412.15 143.9 2412.15 143.898C2412.15 143.9 2412.15 143.901 2412.15 143.901ZM2412.15 142.449C2412.15 142.447 2412.15 142.446 2412.15 142.446C2412.15 142.446 2412.15 142.447 2412.15 142.449Z" stroke="#232323" stroke-width="3.60403"/>
<rect x="2409.59" y="153.596" width="2.58341" height="2.62031" stroke="#232323" stroke-width="2.58341"/>
<path d="M2269.17 228.607V215.379C2269.17 214.444 2268.98 213.518 2268.62 212.659C2268.25 211.801 2267.71 211.027 2267.03 210.387V185.129C2266.58 181.539 2265.73 178.011 2264.51 174.61C2262.43 168.827 2259.27 163.502 2255.19 158.924L2238.89 139.326V127.595H2241.16C2241.4 127.595 2241.63 127.548 2241.85 127.457C2242.07 127.366 2242.27 127.232 2242.44 127.063C2242.6 126.894 2242.74 126.694 2242.83 126.474C2242.92 126.253 2242.96 126.017 2242.96 125.778V102.372C2242.96 101.373 2242.57 100.415 2241.87 99.7086C2241.17 99.0023 2240.22 98.6055 2239.23 98.6055H2203.12C2202.13 98.6055 2201.18 99.0023 2200.48 99.7086C2199.78 100.415 2199.39 101.373 2199.39 102.372V125.778C2199.39 126.017 2199.43 126.253 2199.52 126.474C2199.62 126.694 2199.75 126.894 2199.91 127.063C2200.08 127.232 2200.28 127.366 2200.5 127.457C2200.72 127.548 2200.95 127.595 2201.19 127.595H2204.69V139.326C2199.07 145.097 2193.83 151.232 2189 157.692C2183.35 165.267 2181.56 168.901 2180.65 170.92C2178.19 176.406 2176.62 182.257 2176 188.248V210.826C2174.87 212.084 2174.25 213.719 2174.25 215.414V228.642C2174.25 230.088 2174.7 231.498 2175.55 232.669C2176.39 233.84 2177.57 234.714 2178.93 235.165C2177.57 235.617 2176.39 236.49 2175.55 237.661C2174.7 238.833 2174.25 240.242 2174.25 241.689V254.916C2174.25 256.493 2174.79 258.021 2175.77 259.245C2176.75 260.47 2178.12 261.316 2179.65 261.642C2178.12 261.966 2176.75 262.811 2175.77 264.034C2174.79 265.257 2174.25 266.785 2174.25 268.36V281.588C2174.25 283.207 2174.82 284.773 2175.85 286.011C2176.89 287.249 2178.32 288.079 2179.9 288.355C2178.26 288.879 2176.83 289.916 2175.81 291.317C2174.8 292.718 2174.25 294.409 2174.25 296.145V327.147C2174.26 329.307 2175.12 331.374 2176.64 332.897C2178.15 334.42 2180.21 335.274 2182.35 335.272H2261.07C2263.22 335.272 2265.28 334.412 2266.8 332.88C2268.31 331.349 2269.17 329.272 2269.17 327.105V296.097C2269.17 294.361 2268.62 292.669 2267.61 291.269C2266.59 289.868 2265.16 288.83 2263.52 288.306C2265.1 288.031 2266.54 287.201 2267.57 285.963C2268.6 284.725 2269.17 283.158 2269.17 281.539V268.311C2269.17 266.735 2268.63 265.207 2267.65 263.983C2266.66 262.76 2265.29 261.916 2263.76 261.593C2265.29 261.269 2266.66 260.423 2267.65 259.199C2268.63 257.974 2269.17 256.445 2269.17 254.868V241.64C2269.17 240.193 2268.72 238.784 2267.88 237.613C2267.03 236.441 2265.85 235.568 2264.49 235.116C2265.85 234.666 2267.03 233.794 2267.87 232.626C2268.71 231.457 2269.17 230.051 2269.17 228.607Z" fill="#FFAD93"/>
<path d="M2260.06 288.592H2181.34C2176.86 288.592 2173.24 292.23 2173.24 296.718V327.54C2173.24 332.028 2176.86 335.666 2181.34 335.666H2260.06C2264.53 335.666 2268.16 332.028 2268.16 327.54V296.718C2268.16 292.23 2264.53 288.592 2260.06 288.592Z" stroke="#232323" stroke-width="3.60403" stroke-miterlimit="10"/>
<path d="M2261.36 261.682H2180.04C2176.28 261.682 2173.24 264.737 2173.24 268.506V281.658C2173.24 285.427 2176.28 288.482 2180.04 288.482H2261.36C2265.11 288.482 2268.16 285.427 2268.16 281.658V268.506C2268.16 264.737 2265.11 261.682 2261.36 261.682Z" stroke="#232323" stroke-width="3.60403" stroke-miterlimit="10"/>
<path d="M2261.36 234.785H2180.04C2176.28 234.785 2173.24 237.841 2173.24 241.61V254.761C2173.24 258.53 2176.28 261.586 2180.04 261.586H2261.36C2265.11 261.586 2268.16 258.53 2268.16 254.761V241.61C2268.16 237.841 2265.11 234.785 2261.36 234.785Z" stroke="#232323" stroke-width="3.60403" stroke-miterlimit="10"/>
<path d="M2261.36 207.881H2180.04C2176.28 207.881 2173.24 210.936 2173.24 214.706V227.857C2173.24 231.626 2176.28 234.682 2180.04 234.682H2261.36C2265.11 234.682 2268.16 231.626 2268.16 227.857V214.706C2268.16 210.936 2265.11 207.881 2261.36 207.881Z" stroke="#232323" stroke-width="3.60403" stroke-miterlimit="10"/>
<path d="M2266.04 210.064V184.633C2265.59 181.065 2264.74 177.557 2263.52 174.175C2261.44 168.426 2258.27 163.132 2254.2 158.58L2237.9 139.096H2203.7C2198.07 144.83 2192.81 150.929 2187.98 157.355C2182.32 164.886 2180.54 168.499 2179.63 170.506C2177.17 175.962 2175.6 181.779 2174.97 187.734V210.216" stroke="#232323" stroke-width="3.60403" stroke-miterlimit="10"/>
<path d="M2237.89 139.083V127.648" stroke="#232323" stroke-width="3.60403" stroke-miterlimit="10"/>
<path d="M2203.68 139.083V127.648" stroke="#232323" stroke-width="3.60403" stroke-miterlimit="10"/>
<path d="M2202.1 99.0002H2238.22C2239.2 99.0002 2240.15 99.3947 2240.85 100.097C2241.55 100.799 2241.95 101.752 2241.95 102.745V126.009C2241.95 126.488 2241.76 126.947 2241.42 127.286C2241.08 127.625 2240.62 127.815 2240.15 127.815H2200.14C2199.66 127.815 2199.2 127.625 2198.86 127.286C2198.53 126.947 2198.34 126.488 2198.34 126.009V102.717C2198.34 102.225 2198.44 101.738 2198.63 101.285C2198.82 100.831 2199.1 100.42 2199.45 100.075C2199.8 99.7296 2200.22 99.457 2200.67 99.2726C2201.13 99.0882 2201.61 98.9956 2202.1 99.0002V99.0002Z" stroke="#232323" stroke-width="3.60403" stroke-miterlimit="10"/>
<path d="M2382.54 248.707C2374.19 233.282 2368.63 216.477 2366.14 199.082C2364.38 185.4 2364.51 171.538 2366.53 157.893C2366.86 155.858 2367.03 153.8 2367.02 151.739C2366.83 142.249 2363.57 133.082 2357.73 125.639C2351.89 118.195 2343.8 112.884 2334.68 110.517C2334.88 109.267 2334.88 107.995 2334.68 106.745C2334.13 104.209 2332.83 101.902 2330.95 100.129C2330.9 98.7199 2331.08 97.3127 2331.47 95.9602C2331.6 95.5215 2331.75 95.0906 2331.93 94.67C2332.11 94.219 2332.21 93.7352 2332.2 93.2472C2332.2 92.7593 2332.1 92.2772 2331.9 91.8297C2331.71 91.3821 2331.43 90.9783 2331.08 90.6421C2330.73 90.3059 2330.32 90.0443 2329.86 89.8728L2323.6 87.4908C2322.85 87.2135 2322.03 87.1895 2321.27 87.4222C2320.51 87.655 2319.84 88.1319 2319.37 88.7811C2318.38 90.1811 2317.47 91.6393 2316.65 93.1481C2315.04 96.0937 2313.75 99.1979 2312.78 102.412C2311.28 102.972 2310.01 104.02 2309.17 105.389C2308.52 106.95 2308.2 108.627 2308.22 110.319V110.848C2299.09 113.009 2290.97 118.258 2285.21 125.722C2279.45 133.186 2276.4 142.415 2276.57 151.872C2276.57 154.378 2276.79 156.88 2277.22 159.348C2278.76 172.547 2278.61 185.89 2276.76 199.049C2274.2 215.345 2268.74 231.038 2260.63 245.366C2254.93 254.35 2251.93 264.807 2252 275.472C2252.26 299.226 2261.05 326.917 2291.06 335.221C2296.73 335.993 2302.47 335.837 2308.09 334.758C2317.93 333.203 2318.88 332.905 2321.21 333.236C2325.11 333.798 2325.37 333.831 2330.52 334.758C2334.36 335.433 2338.24 335.875 2342.13 336.081C2376.76 333.236 2391.03 305.115 2391.33 277.92C2391.65 268.26 2386.9 256.78 2382.54 248.707Z" fill="#ABFFA9"/>
<path d="M2381.56 248.184C2373.28 232.835 2367.76 216.112 2365.29 198.803C2363.55 185.188 2363.68 171.395 2365.68 157.817V157.817C2366 155.791 2366.15 153.744 2366.14 151.693C2366.14 128.056 2346.06 108.896 2321.26 108.896C2296.46 108.896 2276.38 128.056 2276.38 151.693C2276.38 154.188 2276.6 156.678 2277.03 159.133C2278.56 172.267 2278.41 185.545 2276.57 198.638C2274.03 214.854 2268.61 230.47 2260.56 244.727C2254.91 253.667 2251.93 264.072 2252 274.685C2252.26 298.322 2260.98 325.877 2290.76 334.14C2296.38 334.908 2302.08 334.753 2307.65 333.679C2317.42 332.132 2318.36 331.835 2320.67 332.165C2324.54 332.724 2324.8 332.757 2329.91 333.679C2333.72 334.353 2337.57 334.793 2341.43 334.996C2375.8 332.165 2389.96 304.182 2390.25 277.121C2390.61 267.64 2385.89 256.217 2381.56 248.184Z" stroke="#232323" stroke-width="3.60403" stroke-miterlimit="10"/>
<path d="M2334.33 111.064C2334.62 109.571 2334.62 108.038 2334.33 106.545C2333.78 104.035 2332.47 101.751 2330.58 99.9964C2330.53 98.6021 2330.71 97.2093 2331.1 95.8707C2331.23 95.4365 2331.39 95.0101 2331.57 94.5938C2331.75 94.1474 2331.84 93.6686 2331.84 93.1857C2331.84 92.7028 2331.73 92.2256 2331.54 91.7827C2331.35 91.3398 2331.07 90.9401 2330.71 90.6073C2330.36 90.2746 2329.95 90.0157 2329.49 89.846L2323.2 87.4885C2322.45 87.2141 2321.63 87.1902 2320.86 87.4206C2320.09 87.651 2319.42 88.123 2318.95 88.7655C2317.95 90.1511 2317.04 91.5943 2316.22 93.0876C2314.61 96.0029 2313.3 99.0751 2312.33 102.256C2310.83 102.81 2309.55 103.847 2308.71 105.203C2308.06 106.747 2307.73 108.407 2307.75 110.081" stroke="#232323" stroke-width="3.60403" stroke-miterlimit="10"/>
<path d="M2303.45 125.127C2299.25 128.366 2295.99 132.541 2293.97 137.267C2291.95 141.993 2291.24 147.119 2291.89 152.172" stroke="#232323" stroke-width="3.60403" stroke-miterlimit="10"/>
<path d="M2054.41 133.735L2054.81 133.651C2054.69 128.752 2054.57 123.851 2054.45 118.946C2054.42 117.376 2053.7 115.871 2052.45 114.714C2051.19 113.556 2049.48 112.826 2047.63 112.659L2044.82 112.368C2029.81 111.189 2014.71 111.058 1999.68 111.974C1995.84 112.209 1992.77 113.213 1990.41 115.727C1990.41 115.727 1989.22 117.604 1989.21 117.604C1985.17 125.643 1981.65 133.863 1978.68 142.228C1976.46 148.196 1974.69 153.957 1973.13 159.447C1968.22 177.21 1965.02 195.28 1963.57 213.48C1962.31 228.672 1962.31 243.921 1963.57 259.113C1965.69 283.03 1971.14 306.652 1979.8 329.493C1980.46 331.21 1981.75 332.706 1983.47 333.768C1985.2 334.83 1987.28 335.402 1989.42 335.404C2008 335.48 2026.59 335.254 2045.17 335.301C2046.5 335.305 2047.82 335.087 2049.05 334.659C2050.28 334.232 2051.4 333.604 2052.34 332.811C2053.28 332.017 2054.03 331.075 2054.54 330.037C2055.05 328.999 2055.32 327.886 2055.32 326.762V134.946C2055.31 134.692 2055.23 134.444 2055.07 134.23C2054.91 134.016 2054.68 133.844 2054.41 133.735Z" fill="#E8E8E8"/>
<path d="M2054.06 326.766V134.915C2054.06 134.728 2054 134.544 2053.91 134.374C2053.81 134.205 2053.68 134.054 2053.51 133.932C2053.34 133.81 2053.14 133.72 2052.93 133.666C2052.72 133.612 2052.5 133.596 2052.28 133.62C2040.39 134.898 2028.67 137.097 2017.27 140.19C2004.21 143.869 1991.6 148.582 1979.6 154.267C1977.63 155.206 1975.99 155.994 1974.86 156.557L1971.87 159.495C1966.97 177.261 1963.77 195.333 1962.31 213.535C1961.05 228.729 1961.05 243.98 1962.31 259.175C1964.43 283.096 1969.88 306.722 1978.55 329.563C1979.22 331.264 1980.51 332.742 1982.24 333.789C1983.96 334.836 1986.03 335.4 1988.15 335.401C2006.74 335.476 2025.33 335.251 2043.91 335.298C2045.24 335.301 2046.56 335.084 2047.79 334.657C2049.02 334.23 2050.14 333.602 2051.08 332.81C2052.02 332.018 2052.77 331.076 2053.28 330.039C2053.8 329.002 2054.06 327.89 2054.06 326.766V326.766Z" stroke="#232323" stroke-width="3.60403" stroke-miterlimit="10"/>
<path d="M2053.56 133.703C2053.45 128.793 2053.34 123.88 2053.22 118.964C2053.18 117.39 2052.47 115.882 2051.21 114.722C2049.95 113.561 2048.23 112.829 2046.38 112.662L2043.53 112.37C2028.46 111.189 2013.3 111.057 1998.21 111.975C1994.36 112.21 1991.27 113.217 1988.91 115.738C1988.91 115.738 1987.72 117.619 1987.7 117.619C1983.65 125.68 1980.12 133.919 1977.12 142.3C1974.95 148.282 1973.13 154.057 1971.6 159.56" stroke="#232323" stroke-width="3.60403" stroke-miterlimit="10"/>
<path d="M1883.83 235.608C1881.14 216.402 1876.04 197.61 1868.68 179.673C1867.91 175.88 1867.75 171.988 1868.2 168.145C1868.39 166.564 1868.74 164.489 1871.21 157.325C1875.01 146.266 1876.62 144.035 1877.67 138.131C1878.23 134.966 1878.45 131.75 1878.34 128.538H1875.34C1876.32 128.134 1877.3 127.657 1878.27 127.344C1878.2 116.85 1876.42 106.437 1873.01 96.5148C1871.96 95.0911 1870.61 93.9123 1869.06 93.0595C1867.51 92.2066 1865.79 91.7 1864.03 91.5742H1788.04C1786.36 91.7025 1784.72 92.1732 1783.22 92.9576C1781.56 93.8116 1780.12 95.0339 1779 96.5312C1777.24 101.654 1775.91 106.914 1775.02 112.259C1774.19 117.251 1773.76 122.3 1773.73 127.36C1774.71 127.673 1775.69 128.184 1776.66 128.554H1773.66C1773.54 131.767 1773.76 134.983 1774.33 138.147C1775.37 144.051 1776.99 146.283 1780.79 157.341C1783.26 164.505 1783.61 166.58 1783.8 168.161C1784.25 172.005 1784.09 175.896 1783.32 179.689C1775.95 197.628 1770.86 216.419 1768.16 235.624C1765.72 253.67 1765.32 271.934 1766.98 290.069C1768.11 302.87 1770.24 315.562 1773.36 328.029C1773.88 330.109 1775.08 331.954 1776.77 333.271C1778.46 334.588 1780.54 335.303 1782.68 335.3H1869.28C1871.42 335.301 1873.5 334.586 1875.19 333.269C1876.88 331.951 1878.08 330.107 1878.6 328.029C1881.72 315.562 1883.85 302.87 1884.99 290.069C1886.66 271.93 1886.27 253.66 1883.83 235.608Z" fill="#E4FFA9"/>
<path d="M1883.79 235.605C1881.09 216.4 1876 197.609 1868.63 179.67C1867.86 175.877 1867.7 171.986 1868.15 168.142C1868.34 166.561 1868.69 164.486 1871.16 157.322C1874.96 146.264 1876.58 144.032 1877.62 138.128C1878.18 134.963 1878.41 131.747 1878.29 128.535H1773.66C1773.55 131.747 1773.77 134.962 1774.33 138.128C1775.38 144.032 1776.99 146.264 1780.79 157.322C1783.26 164.486 1783.61 166.561 1783.8 168.142C1784.26 171.986 1784.09 175.878 1783.32 179.67C1775.95 197.609 1770.86 216.4 1768.17 235.605C1765.72 253.651 1765.32 271.915 1766.97 290.05C1768.11 302.851 1770.25 315.543 1773.36 328.01C1773.88 330.089 1775.08 331.934 1776.77 333.251C1778.46 334.569 1780.54 335.283 1782.68 335.281H1869.28C1871.42 335.284 1873.5 334.569 1875.19 333.252C1876.88 331.935 1878.09 330.09 1878.61 328.01C1881.72 315.543 1883.86 302.851 1884.99 290.05C1886.64 271.915 1886.24 253.65 1883.79 235.605V235.605Z" stroke="#232323" stroke-width="3.60403" stroke-miterlimit="10"/>
<path d="M1876.93 112.275C1876.05 106.93 1874.71 101.669 1872.95 96.548C1871.9 95.1233 1870.55 93.9437 1869 93.0907C1867.45 92.2377 1865.74 91.7316 1863.97 91.6074H1787.99C1786.32 91.7247 1784.69 92.1785 1783.2 92.9414C1781.54 93.7989 1780.1 95.0207 1778.99 96.5151C1775.56 106.433 1773.78 116.848 1773.71 127.344C1775.03 127.764 1776.35 128.489 1777.65 128.909C1793.74 129.106 1809.82 128.711 1825.91 128.909H1826.13C1842.18 128.711 1858.21 129.106 1874.27 128.909C1875.59 128.489 1876.9 127.764 1878.21 127.344C1878.18 122.295 1877.75 117.257 1876.93 112.275V112.275Z" stroke="#232323" stroke-width="3.60403" stroke-miterlimit="10"/>
<path d="M1856.4 135.249L1858.33 136.361C1859.11 136.811 1859.99 137.032 1860.88 137.001C1861.77 136.97 1862.64 136.689 1863.39 136.185L1871.2 130.964C1871.99 130.439 1872.89 130.155 1873.82 130.142C1874.74 130.13 1875.65 130.39 1876.45 130.893L1884.25 135.819C1885 136.291 1885.85 136.549 1886.72 136.569C1887.58 136.589 1888.44 136.369 1889.2 135.931C1893.2 133.645 1900.62 129.43 1901.08 129.43C1901.55 129.43 1908.95 133.652 1912.96 135.931C1913.72 136.369 1914.58 136.589 1915.45 136.569C1916.32 136.549 1917.16 136.291 1917.91 135.819L1925.89 130.767C1926.64 130.289 1927.5 130.03 1928.37 130.014C1929.24 129.998 1930.11 130.226 1930.88 130.675L1939.81 135.903C1940.57 136.351 1941.43 136.579 1942.3 136.567C1943.17 136.555 1944.02 136.302 1944.77 135.833L1953.01 130.703C1953.75 130.236 1954.59 129.98 1955.45 129.958C1956.31 129.936 1957.16 130.149 1957.92 130.577L1966.99 135.664C1967.79 136.109 1968.68 136.318 1969.58 136.271C1970.48 136.224 1971.34 135.923 1972.1 135.397L1972.59 135.052C1973.34 134.526 1974.21 134.224 1975.1 134.176C1976 134.129 1976.89 134.338 1977.69 134.782C1978.48 135.226 1979.15 135.889 1979.63 136.703C1980.11 137.517 1980.38 138.453 1980.41 139.414C1980.51 142.525 1980.58 145.696 1980.61 148.928C1980.67 155.026 1980.61 160.89 1980.42 166.519C1980.41 166.891 1980.43 167.264 1980.49 167.631C1981.99 176.821 1983.66 188.811 1984.84 202.919C1985.88 215.31 1987.25 232.55 1986.11 254.862C1985.29 270.695 1983.35 286.437 1980.29 301.951C1980.22 302.316 1980.19 302.689 1980.19 303.063V328.155C1980.19 329.147 1979.93 330.119 1979.45 330.967C1978.97 331.815 1978.29 332.505 1977.47 332.962C1976.65 333.42 1975.73 333.628 1974.8 333.563C1973.88 333.498 1972.99 333.163 1972.23 332.595C1971.45 332.008 1970.53 331.67 1969.57 331.622C1968.62 331.573 1967.67 331.815 1966.84 332.32L1957.92 337.753C1957.16 338.206 1956.31 338.444 1955.44 338.444C1954.58 338.444 1953.73 338.206 1952.97 337.753L1944.14 332.503C1943.4 332.062 1942.56 331.83 1941.7 331.83C1940.85 331.83 1940.01 332.062 1939.27 332.503L1930.62 337.577C1929.87 338.018 1929.03 338.25 1928.18 338.25C1927.33 338.25 1926.49 338.018 1925.74 337.577L1916.92 332.334C1916.16 331.885 1915.31 331.652 1914.44 331.658C1913.57 331.664 1912.72 331.909 1911.96 332.37L1903.57 337.52C1902.82 337.981 1901.97 338.228 1901.11 338.237C1900.25 338.247 1899.39 338.02 1898.64 337.577L1889.61 332.292C1888.86 331.847 1888.02 331.614 1887.16 331.614C1886.31 331.614 1885.47 331.847 1884.72 332.292L1875.79 337.661C1875.01 338.132 1874.12 338.371 1873.22 338.353C1872.32 338.334 1871.44 338.059 1870.68 337.555L1862.81 332.377C1862 331.843 1861.06 331.566 1860.11 331.577C1859.16 331.588 1858.23 331.887 1857.44 332.44L1855.72 333.615C1854.97 334.135 1854.1 334.429 1853.2 334.468C1852.3 334.507 1851.41 334.288 1850.62 333.836C1849.82 333.383 1849.16 332.712 1848.68 331.892C1848.21 331.072 1847.95 330.131 1847.93 329.168C1847.87 326.006 1847.84 322.776 1847.84 319.479C1847.84 313.634 1847.97 308.005 1848.23 302.591C1848.25 302.212 1848.23 301.832 1848.18 301.458C1841.09 256.026 1841.57 209.606 1849.59 164.352C1849.66 163.907 1849.69 163.453 1849.66 163.001C1849.26 156.569 1849 149.829 1848.96 142.813C1848.96 141.87 1848.96 140.927 1848.96 139.999C1848.97 139.065 1849.2 138.148 1849.63 137.338C1850.06 136.528 1850.68 135.851 1851.43 135.373C1852.18 134.896 1853.03 134.633 1853.9 134.611C1854.77 134.59 1855.63 134.809 1856.4 135.249Z" fill="#D4A9FF"/>
<path d="M1884.46 227.184C1886.19 220.062 1890.05 213.746 1895.45 209.206C1900.84 204.666 1907.47 202.153 1914.33 202.05C1921.18 201.948 1927.87 204.262 1933.38 208.639C1938.89 213.016 1942.92 219.214 1944.84 226.282" stroke="#232323" stroke-width="3.60403" stroke-miterlimit="10"/>
<path d="M1943.53 248.133C1941.19 254.279 1937.21 259.545 1932.11 263.271C1927 266.997 1920.99 269.017 1914.82 269.079C1908.65 269.141 1902.6 267.242 1897.43 263.619C1892.26 259.996 1888.2 254.811 1885.75 248.713" stroke="#232323" stroke-width="3.60403" stroke-miterlimit="10"/>
<path d="M1876.22 228.649V253.662C1876.22 253.764 1876.25 253.865 1876.3 253.951C1876.35 254.036 1876.43 254.104 1876.52 254.145C1876.6 254.187 1876.7 254.2 1876.8 254.184C1876.89 254.167 1876.98 254.122 1877.05 254.053C1879.68 251.507 1882.87 249.717 1886.32 248.852C1888.9 248.198 1891.57 248.018 1894.2 248.321H1951.93C1952.24 248.319 1952.54 248.186 1952.76 247.952C1952.98 247.717 1953.1 247.4 1953.1 247.069V221.203C1953.1 221.096 1953.07 220.99 1953.01 220.902C1952.96 220.813 1952.87 220.746 1952.78 220.708C1952.69 220.67 1952.58 220.664 1952.48 220.69C1952.39 220.716 1952.3 220.773 1952.23 220.854C1950.9 222.257 1949.43 223.503 1947.84 224.573L1947.36 224.915C1944.84 226.586 1941.93 227.459 1938.96 227.432H1877.39C1877.24 227.432 1877.09 227.464 1876.94 227.527C1876.8 227.59 1876.67 227.682 1876.56 227.799C1876.45 227.915 1876.37 228.053 1876.31 228.205C1876.25 228.356 1876.22 228.519 1876.22 228.683V228.649Z" stroke="#232323" stroke-width="3.60403" stroke-linecap="round" stroke-linejoin="round"/>
<path d="M1856.41 135.25L1858.35 136.362C1859.13 136.812 1860.01 137.033 1860.9 137.002C1861.79 136.971 1862.65 136.69 1863.41 136.186L1871.22 130.965C1872 130.439 1872.91 130.154 1873.83 130.142C1874.76 130.129 1875.67 130.39 1876.47 130.895L1884.28 135.82C1885.02 136.292 1885.87 136.55 1886.74 136.57C1887.6 136.59 1888.46 136.37 1889.22 135.932C1893.22 133.646 1900.64 129.432 1901.1 129.432C1901.56 129.432 1908.97 133.653 1912.98 135.932C1913.74 136.37 1914.6 136.59 1915.46 136.57C1916.33 136.55 1917.18 136.292 1917.93 135.82L1925.9 130.768C1926.66 130.291 1927.51 130.032 1928.39 130.016C1929.26 130 1930.12 130.228 1930.89 130.677L1939.83 135.904C1940.59 136.352 1941.45 136.58 1942.32 136.568C1943.19 136.556 1944.04 136.303 1944.79 135.834L1953.03 130.705C1953.77 130.242 1954.6 129.988 1955.46 129.965C1956.31 129.943 1957.16 130.154 1957.92 130.578L1966.99 135.665C1967.79 136.11 1968.68 136.319 1969.58 136.272C1970.47 136.225 1971.34 135.924 1972.1 135.398L1972.58 135.053C1973.33 134.527 1974.2 134.225 1975.1 134.178C1975.99 134.13 1976.88 134.339 1977.68 134.783C1978.48 135.227 1979.15 135.89 1979.63 136.704C1980.1 137.518 1980.37 138.454 1980.4 139.415C1980.51 142.525 1980.58 145.696 1980.61 148.927C1980.67 155.025 1980.6 160.888 1980.41 166.516C1980.41 166.888 1980.43 167.26 1980.49 167.628C1981.99 176.816 1983.66 188.805 1984.84 202.911C1985.87 215.301 1987.25 232.538 1986.11 254.848C1985.29 270.677 1983.35 286.417 1980.3 301.929C1980.22 302.295 1980.19 302.667 1980.18 303.041V328.13C1980.18 329.122 1979.93 330.094 1979.45 330.942C1978.97 331.789 1978.28 332.479 1977.46 332.937C1976.64 333.395 1975.72 333.602 1974.8 333.538C1973.87 333.473 1972.99 333.138 1972.23 332.569V332.569C1971.45 331.982 1970.52 331.645 1969.57 331.596C1968.62 331.548 1967.67 331.79 1966.84 332.295L1957.92 337.755C1957.16 338.208 1956.31 338.446 1955.45 338.446C1954.58 338.446 1953.73 338.208 1952.97 337.755L1944.15 332.534C1943.4 332.093 1942.56 331.861 1941.71 331.861C1940.86 331.861 1940.02 332.093 1939.27 332.534L1930.62 337.607C1929.88 338.048 1929.04 338.28 1928.19 338.28C1927.34 338.28 1926.5 338.048 1925.75 337.607L1916.93 332.365C1916.17 331.916 1915.31 331.683 1914.45 331.689C1913.58 331.695 1912.73 331.94 1911.97 332.4L1903.57 337.551C1902.82 338.011 1901.98 338.258 1901.11 338.267C1900.25 338.277 1899.4 338.05 1898.64 337.607L1889.62 332.323C1888.87 331.878 1888.03 331.645 1887.18 331.645C1886.32 331.645 1885.48 331.878 1884.73 332.323L1875.8 337.691C1875.01 338.163 1874.12 338.401 1873.23 338.383C1872.33 338.364 1871.45 338.089 1870.68 337.586L1862.81 332.408C1862 331.874 1861.07 331.597 1860.11 331.609C1859.16 331.62 1858.23 331.919 1857.43 332.471L1855.73 333.646C1854.97 334.168 1854.1 334.464 1853.2 334.504C1852.3 334.544 1851.41 334.326 1850.62 333.873C1849.82 333.42 1849.16 332.748 1848.69 331.927C1848.21 331.105 1847.96 330.164 1847.94 329.199C1847.87 326.038 1847.83 322.809 1847.84 319.511C1847.84 313.665 1848 308.029 1848.24 302.626C1848.25 302.247 1848.23 301.867 1848.17 301.493C1841.09 256.048 1841.57 209.614 1849.6 164.349C1849.68 163.904 1849.7 163.45 1849.68 162.998C1849.28 156.568 1849.02 149.828 1848.98 142.813C1848.98 141.871 1848.98 140.928 1848.98 139.999C1848.99 139.066 1849.22 138.151 1849.65 137.342C1850.08 136.533 1850.7 135.857 1851.45 135.379C1852.2 134.902 1853.04 134.639 1853.91 134.616C1854.78 134.594 1855.64 134.812 1856.41 135.25V135.25Z" stroke="#232323" stroke-width="3.60403" stroke-miterlimit="10"/>
<path d="M1847.98 302.139L1980.03 302.604" stroke="#232323" stroke-width="3.60403" stroke-miterlimit="10"/>
<path d="M1847.54 315.641H1980.03" stroke="#232323" stroke-width="3.60403" stroke-miterlimit="10"/>
<path d="M1849.28 155.498L1980.46 155.964" stroke="#232323" stroke-width="3.60403" stroke-miterlimit="10"/>
<path d="M1849.71 167.143H1980.46" stroke="#232323" stroke-width="3.60403" stroke-miterlimit="10"/>
<path d="M1504.58 121.005C1504.59 110.729 1501.38 100.709 1495.41 92.3466C1489.44 83.9847 1481.01 77.7004 1471.29 74.3741C1461.57 71.0478 1451.05 70.8462 1441.21 73.7975C1431.37 76.7488 1422.7 82.7052 1416.42 90.8322C1409.72 84.267 1400.93 80.258 1391.58 79.5024C1382.23 78.7468 1372.92 81.2923 1365.25 86.6963C1357.58 92.1003 1352.05 100.021 1349.62 109.081C1347.19 118.141 1348.01 127.767 1351.94 136.285C1347.75 138.225 1344 140.983 1340.9 144.396C1337.8 147.81 1335.41 151.81 1333.88 156.161C1332.35 160.512 1331.7 165.125 1331.98 169.73C1332.26 174.334 1333.46 178.836 1335.5 182.97C1337.55 187.104 1340.4 190.787 1343.89 193.801C1347.38 196.815 1351.44 199.1 1355.83 200.52C1360.22 201.94 1364.84 202.468 1369.44 202.071C1374.03 201.675 1378.5 200.363 1382.58 198.211C1386.91 203.672 1390.72 209.527 1393.95 215.7C1399.38 226.065 1403.1 237.242 1404.96 248.797C1406.73 260.243 1406.56 271.904 1404.48 283.297H1431.33C1430.78 277.451 1430.78 271.565 1431.33 265.719C1433.76 243.715 1442.89 222.991 1457.5 206.359C1464.2 208.921 1471.58 209.11 1478.4 206.893C1485.23 204.676 1491.09 200.188 1495 194.175C1498.92 188.163 1500.66 180.99 1499.93 173.85C1499.21 166.711 1496.06 160.036 1491.01 154.937C1499.74 145.801 1504.6 133.643 1504.58 121.005ZM1401.05 192.869C1399.59 190.154 1398.07 187.676 1396.51 185.378L1396.69 185.08C1401.66 191.042 1408.42 195.232 1415.97 197.018C1414.15 203.882 1412.3 210.776 1410.48 217.67C1408.5 209.006 1405.33 200.66 1401.05 192.869ZM1427.9 229.787L1426.98 197.764C1432.16 197.318 1437.19 195.728 1441.69 193.108C1442.35 194.228 1443.09 195.305 1443.89 196.331L1427.9 229.787Z" fill="#ABFFA9"/>
<path d="M1503.79 120.79C1503.8 110.559 1500.6 100.582 1494.64 92.2567C1488.68 83.9312 1480.26 77.6743 1470.55 74.3625C1460.85 71.0507 1450.35 70.85 1440.53 73.7885C1430.7 76.7269 1422.05 82.6573 1415.77 90.7488C1409.09 84.1913 1400.32 80.1816 1390.98 79.4194C1381.63 78.6573 1372.32 81.191 1364.66 86.5785C1357 91.9661 1351.48 99.8654 1349.06 108.898C1346.65 117.931 1347.48 127.524 1351.43 136.003C1346.62 138.352 1342.41 141.789 1339.16 146.042C1335.91 150.295 1333.7 155.246 1332.7 160.502C1331.71 165.758 1331.95 171.173 1333.42 176.317C1334.89 181.46 1337.55 186.191 1341.17 190.132C1344.79 194.074 1349.29 197.117 1354.3 199.02C1359.31 200.924 1364.7 201.634 1370.03 201.096C1375.37 200.557 1380.5 198.784 1385.03 195.918C1389.56 193.052 1393.35 189.172 1396.11 184.586C1401.46 191.022 1408.93 195.358 1417.18 196.821C1425.43 198.285 1433.94 196.781 1441.18 192.579C1443.45 196.393 1446.5 199.684 1450.13 202.231C1453.77 204.779 1457.91 206.526 1462.28 207.356C1466.64 208.186 1471.13 208.08 1475.46 207.045C1479.78 206.011 1483.83 204.071 1487.34 201.355C1490.85 198.639 1493.75 195.209 1495.83 191.292C1497.91 187.376 1499.13 183.062 1499.41 178.638C1499.7 174.213 1499.03 169.78 1497.47 165.631C1495.9 161.482 1493.47 157.713 1490.33 154.575C1499.01 145.464 1503.84 133.361 1503.79 120.79Z" stroke="#232323" stroke-width="3.60403" stroke-linecap="round" stroke-linejoin="round"/>
<path d="M1415.27 197.339L1409.6 218.126C1407.55 209.524 1404.3 201.233 1399.96 193.479C1398.44 190.777 1396.91 188.312 1395.33 186.025" stroke="#232323" stroke-width="3.60403" stroke-linecap="round" stroke-linejoin="round"/>
<path d="M1443.48 196.723L1427.85 229.796L1426.95 198.139" stroke="#232323" stroke-width="3.60403" stroke-linecap="round" stroke-linejoin="round"/>
<path d="M1381.71 198.674C1386.07 204.105 1389.89 209.926 1393.14 216.063C1398.62 226.369 1402.37 237.481 1404.26 248.971C1405.87 259.365 1405.87 269.942 1404.26 280.336C1404.2 280.706 1404.23 281.084 1404.33 281.443C1404.44 281.802 1404.62 282.134 1404.87 282.416C1405.12 282.699 1405.43 282.924 1405.77 283.077C1406.12 283.231 1406.5 283.308 1406.87 283.303H1427.92C1428.27 283.304 1428.63 283.233 1428.95 283.094C1429.28 282.955 1429.58 282.751 1429.82 282.496C1430.07 282.24 1430.25 281.938 1430.38 281.607C1430.5 281.277 1430.55 280.925 1430.53 280.573C1430.23 275.63 1430.3 270.67 1430.74 265.737C1433.2 243.862 1442.4 223.26 1457.1 206.715" stroke="#232323" stroke-width="3.60403" stroke-linecap="round" stroke-linejoin="round"/>
<path d="M1382.69 93.1289C1376.99 94.0733 1371.75 96.8446 1367.73 101.034C1363.31 105.762 1360.68 111.92 1360.31 118.421" stroke="#232323" stroke-width="3.60403" stroke-linecap="round" stroke-linejoin="round"/>
<path d="M1304.66 332.231H1393.69L1484.9 238.326H1399.03L1304.66 332.231Z" fill="#A9FFF5"/>
<path d="M1491.77 332.235L1392.5 332.002L1483.66 241.359C1485.43 244.605 1493.95 251.469 1499.76 278.917C1505.57 306.364 1495.72 328.217 1491.77 332.235Z" fill="#A9FFF5"/>
<ellipse cx="1406.93" cy="263.547" rx="7.99708" ry="8.48175" transform="rotate(22.8899 1406.93 263.547)" fill="#A9FFF5"/>
<ellipse cx="1411.65" cy="282.697" rx="4.27352" ry="4.53252" transform="rotate(22.8899 1411.65 282.697)" fill="#A9FFF5"/>
<path d="M1304.66 332.601H1393.6L1484.72 238.332H1398.93L1304.66 332.601Z" stroke="#232323" stroke-width="3.60403" stroke-linejoin="round"/>
<path d="M1492.83 332.837L1393.34 332.595L1484.7 238.326C1486.48 241.701 1495.02 248.84 1500.84 277.386C1506.67 305.931 1496.8 328.658 1492.83 332.837Z" stroke="#232323" stroke-width="3.60403" stroke-linejoin="round"/>
<ellipse cx="1402.8" cy="261.118" rx="7.99708" ry="8.48175" transform="rotate(22.8899 1402.8 261.118)" stroke="#232323" stroke-width="3.60403" stroke-linejoin="round"/>
<ellipse cx="1407.54" cy="280.268" rx="4.27352" ry="4.53252" transform="rotate(22.8899 1407.54 280.268)" stroke="#232323" stroke-width="3.60403" stroke-linejoin="round"/>
<path d="M1639.68 224.036H1638.77C1638.39 219.601 1636.86 215.36 1634.36 211.775C1631.85 208.19 1628.46 205.397 1624.56 203.702C1626.02 200.204 1626.68 196.391 1626.49 192.573C1626.29 188.755 1625.24 185.039 1623.43 181.729C1621.61 178.419 1619.08 175.607 1616.04 173.523C1613 171.438 1609.53 170.14 1605.92 169.734C1605.92 169.601 1605.92 169.476 1605.92 169.343C1605.93 165.026 1604.85 160.785 1602.78 157.057C1600.72 153.328 1597.75 150.246 1594.18 148.129C1590.61 146.011 1586.57 144.935 1582.48 145.009C1578.38 145.084 1574.38 146.307 1570.88 148.553C1569.05 144.788 1566.32 141.592 1562.95 139.282C1559.59 136.972 1555.71 135.628 1551.71 135.383C1547.7 135.137 1543.7 135.999 1540.11 137.883C1536.51 139.767 1533.45 142.607 1531.21 146.123C1527.73 143.894 1523.74 142.679 1519.67 142.602C1515.59 142.525 1511.57 143.588 1508.01 145.683C1504.45 147.779 1501.49 150.831 1499.41 154.53C1497.34 158.229 1496.23 162.441 1496.2 166.737C1492.43 166.847 1488.74 167.933 1485.45 169.9C1482.17 171.867 1479.39 174.655 1477.37 178.018C1475.35 181.381 1474.14 185.217 1473.85 189.187C1473.57 193.157 1474.21 197.141 1475.73 200.787C1471.74 202.734 1468.36 205.845 1465.99 209.752C1463.62 213.659 1462.36 218.199 1462.36 222.836C1462.36 223.241 1462.36 223.646 1462.36 224.043H1461.41C1460.21 224.053 1459.02 224.334 1457.93 224.867C1456.84 225.401 1455.88 226.175 1455.1 227.137C1454.32 228.099 1453.74 229.226 1453.41 230.443C1453.08 231.659 1453 232.937 1453.18 234.188C1454.17 241.243 1455.84 248.176 1458.14 254.883C1469.16 286.959 1491.87 304.775 1502.01 311.747H1502.28V328.003C1502.28 329.442 1502.83 330.822 1503.79 331.84C1504.76 332.857 1506.07 333.429 1507.44 333.429H1593.66C1594.34 333.43 1595.01 333.29 1595.64 333.018C1596.26 332.745 1596.83 332.346 1597.31 331.842C1597.79 331.338 1598.17 330.74 1598.43 330.081C1598.69 329.422 1598.82 328.716 1598.82 328.003V311.74H1598.12C1607.7 305.747 1634.81 286.945 1644.76 251.504C1646.39 245.666 1647.48 239.674 1648.01 233.614C1648.12 232.395 1647.98 231.166 1647.61 230.006C1647.24 228.846 1646.65 227.78 1645.86 226.878C1645.08 225.976 1644.12 225.257 1643.06 224.767C1641.99 224.278 1640.84 224.029 1639.68 224.036Z" fill="#E4FFA9"/>
<path d="M1638.73 224.036C1638.35 219.601 1636.83 215.361 1634.32 211.776C1631.82 208.191 1628.43 205.398 1624.52 203.702C1625.99 200.204 1626.65 196.392 1626.45 192.574C1626.26 188.757 1625.21 185.042 1623.39 181.732C1621.58 178.422 1619.05 175.61 1616.01 173.525C1612.97 171.44 1609.5 170.141 1605.9 169.734C1605.9 169.601 1605.9 169.476 1605.9 169.343C1605.9 165.026 1604.82 160.785 1602.75 157.057C1600.69 153.328 1597.72 150.246 1594.15 148.129C1590.58 146.011 1586.54 144.935 1582.45 145.009C1578.35 145.084 1574.35 146.307 1570.85 148.553C1569.02 144.788 1566.29 141.592 1562.93 139.282C1559.56 136.972 1555.69 135.628 1551.68 135.383C1547.67 135.137 1543.67 135.999 1540.08 137.883C1536.48 139.767 1533.42 142.607 1531.19 146.123C1527.7 143.894 1523.72 142.679 1519.64 142.602C1515.57 142.525 1511.54 143.588 1507.99 145.683C1504.43 147.779 1501.46 150.831 1499.38 154.53C1497.31 158.229 1496.2 162.441 1496.18 166.737C1492.4 166.848 1488.71 167.935 1485.43 169.902C1482.14 171.87 1479.37 174.658 1477.35 178.021C1475.33 181.384 1474.12 185.219 1473.83 189.189C1473.55 193.158 1474.19 197.141 1475.71 200.787C1471.72 202.733 1468.34 205.843 1465.97 209.751C1463.6 213.658 1462.34 218.198 1462.34 222.836C1462.34 223.27 1462.34 223.697 1462.37 224.124" stroke="#232323" stroke-width="3.60403" stroke-miterlimit="10"/>
<path d="M1461.41 224.035H1639.63C1640.79 224.034 1641.93 224.288 1642.99 224.779C1644.05 225.271 1645 225.99 1645.78 226.891C1646.56 227.791 1647.16 228.854 1647.53 230.01C1647.9 231.166 1648.03 232.391 1647.93 233.606C1647.4 239.667 1646.31 245.659 1644.67 251.496C1634.73 286.936 1607.61 305.739 1598.04 311.732H1502.01C1491.86 304.76 1469.18 286.944 1458.14 254.867C1455.83 248.161 1454.17 241.228 1453.18 234.173C1453 232.922 1453.08 231.645 1453.41 230.43C1453.74 229.214 1454.32 228.088 1455.1 227.126C1455.88 226.165 1456.85 225.392 1457.93 224.859C1459.02 224.325 1460.21 224.045 1461.41 224.035V224.035Z" stroke="#232323" stroke-width="3.60403" stroke-miterlimit="10"/>
<path d="M1502.28 311.742H1598.76V327.998C1598.76 329.439 1598.22 330.821 1597.25 331.839C1596.28 332.858 1594.97 333.431 1593.6 333.431H1507.44C1506.07 333.431 1504.76 332.858 1503.79 331.839C1502.83 330.821 1502.28 329.439 1502.28 327.998V311.742H1502.28Z" stroke="#232323" stroke-width="3.60403" stroke-miterlimit="10"/>
<path d="M1562.08 170.984C1568.75 168.842 1575.44 170.248 1579.17 174.776C1580.69 176.664 1581.69 178.955 1582.07 181.401C1587.39 178.928 1593.24 179.841 1596.59 183.558C1598.44 185.687 1599.51 188.436 1599.62 191.318" stroke="#232323" stroke-width="3.60403" stroke-miterlimit="10"/>
<path d="M1499.09 199.223C1499.87 198.487 1505.09 193.643 1511.9 194.894C1514.03 195.297 1516.04 196.222 1517.76 197.596C1519.74 195.31 1522.36 193.76 1525.24 193.179C1531.69 191.957 1536.46 196.485 1537.02 197.044" stroke="#232323" stroke-width="3.60403" stroke-miterlimit="10"/>
<path d="M1011.64 121.545C1006.11 109.975 1000.57 92.4546 982.13 77.5788C970.404 68.2569 957.803 60.0655 944.501 53.1165V47.1662H944.267C944.799 47.1662 945.309 46.9572 945.685 46.5852C946.06 46.2133 946.272 45.7088 946.272 45.1828V38.5713C946.272 38.0453 946.06 37.5408 945.685 37.1688C945.309 36.7968 944.799 36.5879 944.267 36.5879H912.124C911.592 36.5879 911.082 36.7968 910.706 37.1688C910.33 37.5408 910.119 38.0453 910.119 38.5713V45.1828C910.119 45.7088 910.33 46.2133 910.706 46.5852C911.082 46.9572 911.592 47.1662 912.124 47.1662H912.398V53.1165L907.974 57.4139C905.02 61.6056 898.305 73.612 895.064 88.1572C891.001 106.339 889.898 130.14 890.265 142.371L891.742 158.9V323.769C891.742 327.276 893.15 330.639 895.657 333.119C898.163 335.599 901.563 336.992 905.107 336.992H1003.81C1007.35 336.992 1010.75 335.599 1013.26 333.119C1015.77 330.639 1017.17 327.276 1017.17 323.769V158.569C1017.17 150.087 1016.06 130.801 1011.64 121.545ZM996.077 149.313C993.497 154.602 986.053 152.784 983.908 151.958C981.322 150.966 979.845 149.974 966.934 132.454C955.073 116.362 948.738 99.066 947.013 92.4546C946.773 92.0182 946.425 90.4712 947.013 87.8266C947.601 85.182 948.31 84.4746 948.858 83.8597C950.335 82.2069 955.206 79.6945 962.891 84.1903C972.481 89.81 983.921 104.025 992.401 120.553C1000.88 137.082 998.663 144.024 996.077 149.313Z" fill="#A9DBFF"/>
<path d="M1010.11 121.844C1004.64 110.278 999.191 92.7648 980.999 77.8949C969.434 68.5742 957.005 60.3859 943.883 53.4421V47.4941H943.652C944.176 47.4941 944.679 47.2852 945.05 46.9134C945.421 46.5416 945.629 46.0373 945.629 45.5114V38.9026C945.629 38.3767 945.421 37.8724 945.05 37.5006C944.679 37.1288 944.176 36.9199 943.652 36.9199H911.954C911.429 36.9199 910.927 37.1288 910.556 37.5006C910.185 37.8724 909.976 38.3767 909.976 38.9026V45.5114C909.976 46.0373 910.185 46.5416 910.556 46.9134C910.927 47.2852 911.429 47.4941 911.954 47.4941H912.224V53.4421L907.861 57.7378C904.947 61.9213 898.323 73.9296 895.126 88.4691C891.119 106.643 890.031 130.435 890.393 142.662L891.85 159.184V323.989C891.85 327.495 893.239 330.857 895.711 333.336C898.184 335.814 901.537 337.207 905.033 337.207H1002.38C1005.88 337.207 1009.23 335.814 1011.7 333.336C1014.18 330.857 1015.56 327.495 1015.56 323.989V158.853C1015.56 150.348 1014.47 131.096 1010.11 121.844ZM994.755 149.601C992.211 154.888 984.868 153.071 982.752 152.245C980.201 151.253 978.744 150.262 966.01 132.748C954.31 116.656 948.062 99.3737 946.361 92.7648C946.124 92.3286 945.781 90.7822 946.361 88.1386C946.941 85.4951 947.64 84.7879 948.18 84.1733C949.637 82.5211 954.442 80.0097 962.022 84.5038C971.481 90.1213 982.765 104.33 991.13 120.853C999.494 137.375 997.306 144.314 994.755 149.601Z" stroke="#232323" stroke-width="3.60403" stroke-miterlimit="10" stroke-linecap="round" stroke-linejoin="round"/>
<path d="M1184.07 179.424C1185.11 178.248 1185.68 176.711 1185.68 175.118V164.426C1185.68 162.765 1185.25 161.134 1184.43 159.704C1183.62 158.274 1182.44 157.097 1181.04 156.294L1159.13 143.64C1157.25 139.566 1155.38 134.96 1153.48 130.737C1152.87 129.342 1152.7 127.779 1153.02 126.28C1153.91 122.188 1154.34 118.003 1154.3 113.809C1154.05 102.177 1150.42 90.8945 1143.89 81.4333V57.3887H1147.1V38.6152H1108.28V57.3887H1112.27V81.1174C1105.61 90.531 1101.88 101.824 1101.56 113.493C1101.5 117.635 1101.91 121.77 1102.78 125.815C1103.15 127.507 1102.91 129.283 1102.1 130.803L1095.22 143.64L1074.37 156.261C1073.01 157.078 1071.89 158.25 1071.1 159.66C1070.32 161.069 1069.91 162.667 1069.91 164.293V175.367C1069.9 176.813 1070.38 178.216 1071.26 179.341L1075.86 185.278V300.379L1071.29 305.019C1070.78 305.519 1070.38 306.121 1070.1 306.786C1069.83 307.452 1069.69 308.169 1069.68 308.893V325.039C1069.69 326.448 1070.22 327.8 1071.16 328.814L1079.02 337.211H1172.94L1182.81 328.897C1183.4 328.384 1183.88 327.741 1184.21 327.014C1184.54 326.287 1184.71 325.494 1184.72 324.69V308.86C1184.72 307.441 1184.18 306.079 1183.22 305.069L1178.83 300.413V185.211L1184.07 179.424Z" fill="#FFAD93"/>
<path d="M1076.57 337.211H1170.49L1180.34 328.897C1180.94 328.387 1181.42 327.745 1181.76 327.018C1182.09 326.29 1182.26 325.495 1182.26 324.69V308.86C1182.27 307.441 1181.73 306.079 1180.77 305.069L1176.37 300.413V185.211L1181.6 179.358C1182.65 178.186 1183.22 176.646 1183.21 175.051V164.426C1183.21 162.766 1182.78 161.136 1181.97 159.706C1181.16 158.276 1179.99 157.097 1178.59 156.294L1156.61 143.64C1154.72 139.566 1152.84 134.96 1150.97 130.737C1150.33 129.347 1150.17 127.778 1150.5 126.28C1151.39 122.188 1151.81 118.003 1151.77 113.809C1151.5 102.172 1147.86 90.8887 1141.31 81.4333V57.3887H1109.82V81.1174C1103.15 90.527 1099.41 101.822 1099.1 113.493C1099.05 117.634 1099.45 121.768 1100.31 125.815C1100.7 127.504 1100.46 129.284 1099.65 130.803L1092.77 143.64L1071.91 156.261C1070.56 157.079 1069.43 158.25 1068.65 159.66C1067.87 161.069 1067.46 162.667 1067.45 164.293V175.367C1067.46 176.815 1067.94 178.218 1068.82 179.341L1073.42 185.278V300.379L1068.85 305.019C1068.35 305.52 1067.94 306.121 1067.67 306.787C1067.39 307.453 1067.25 308.169 1067.25 308.893V325.039C1067.25 326.448 1067.78 327.8 1068.72 328.814L1076.57 337.211Z" stroke="#232323" stroke-width="3.60403" stroke-miterlimit="10" stroke-linecap="round" stroke-linejoin="round"/>
<path d="M1093.32 143.674H1157.16" stroke="#232323" stroke-width="3.60403" stroke-miterlimit="10" stroke-linecap="round" stroke-linejoin="round"/>
<path d="M1078.59 183.58H1171.86" stroke="#232323" stroke-width="3.60403" stroke-miterlimit="10" stroke-linecap="round" stroke-linejoin="round"/>
<path d="M1085.53 287.455H1164.92" stroke="#232323" stroke-width="3.60403" stroke-miterlimit="10" stroke-linecap="round" stroke-linejoin="round"/>
<path d="M1144.66 38.6152H1105.84V57.3887H1144.66V38.6152Z" stroke="#232323" stroke-width="3.60403" stroke-miterlimit="10" stroke-linecap="round" stroke-linejoin="round"/>
<path d="M1093.03 135.488C1092.67 133.556 1092.03 131.679 1091.13 128.679C1090.12 125.235 1087.46 117.421 1079.84 106.092C1072.77 95.7455 1064.32 86.1845 1054.67 77.6128V72.1573H1058.7V61.3086H1058.54V53.014C1058.54 51.6521 1057.92 50.346 1056.84 49.3829C1055.75 48.4199 1054.27 47.8789 1052.73 47.8789H1020.84C1019.3 47.8789 1017.82 48.4199 1016.73 49.3829C1015.64 50.346 1015.03 51.6521 1015.03 53.014V61.5578V72.1395C1016.45 72.1395 1017.62 72.1395 1019.23 72.1395V77.6484C1005.36 87.8394 994.205 100.6 986.543 115.027C983.053 121.491 980.392 128.279 978.609 135.265L978.508 136.022V314.016L980.834 325.105C980.834 328.315 982.277 331.394 984.845 333.664C987.413 335.933 990.896 337.209 994.528 337.209H1077.15C1080.79 337.209 1084.27 335.933 1086.84 333.664C1089.41 331.394 1090.85 328.315 1090.85 325.105L1093.09 314.016V136.022L1093.03 135.488Z" fill="#E4FFA9"/>
<path d="M1013.03 61.3027H1056.78V72.1337H1052.75V77.5892C1062.38 86.1634 1070.81 95.7243 1077.87 106.068C1085.48 117.398 1088.12 125.212 1089.16 128.656C1090.06 131.655 1090.7 133.533 1091.06 135.464L1091.12 135.971V313.966L1088.88 325.055C1088.88 326.644 1088.52 328.218 1087.83 329.687C1087.15 331.155 1086.14 332.489 1084.87 333.613C1083.59 334.737 1082.08 335.629 1080.42 336.237C1078.76 336.845 1076.98 337.158 1075.18 337.158H992.555C990.757 337.158 988.976 336.845 987.315 336.237C985.653 335.629 984.144 334.737 982.872 333.613C981.6 332.489 980.592 331.155 979.903 329.687C979.215 328.218 978.861 326.644 978.861 325.055L976.535 313.966V135.971L976.636 135.215C978.419 128.229 981.081 121.441 984.57 114.977C992.233 100.55 1003.39 87.7891 1017.25 77.5981V72.0892C1015.64 72.0892 1014.48 72.0892 1013.06 72.0892L1013.03 61.3027Z" stroke="#232323" stroke-width="3.60403" stroke-miterlimit="10" stroke-linecap="round" stroke-linejoin="round"/>
<path d="M1018.85 47.625H1050.82C1052.36 47.625 1053.84 48.166 1054.92 49.1291C1056.01 50.0921 1056.63 51.3982 1056.63 52.7602V61.3039H1013.03V52.7602C1013.03 52.0851 1013.18 51.4166 1013.47 50.793C1013.76 50.1694 1014.19 49.6029 1014.73 49.1259C1015.27 48.649 1015.91 48.2709 1016.62 48.0134C1017.33 47.7558 1018.08 47.6238 1018.85 47.625V47.625Z" stroke="#232323" stroke-width="3.60403" stroke-miterlimit="10" stroke-linecap="round" stroke-linejoin="round"/>
<path d="M1004.39 191.163L1077.58 248.121V299.241C1077.58 302.582 1076.08 305.785 1073.4 308.146C1070.73 310.507 1067.11 311.834 1063.33 311.834H1004.71C1000.94 311.834 997.322 310.512 994.65 308.159C991.977 305.805 990.469 302.611 990.456 299.276L990.134 196.983C990.108 195.513 990.565 194.069 991.451 192.824C992.336 191.58 993.611 190.589 995.12 189.973C996.63 189.357 998.31 189.141 999.956 189.352C1001.6 189.563 1003.14 190.192 1004.39 191.163Z" stroke="#232323" stroke-width="3.60403" stroke-miterlimit="10" stroke-linecap="round" stroke-linejoin="round"/>
<path d="M1045.54 142H1030.96C1030.75 141.998 1030.53 142.021 1030.33 142.071C1026.84 142.848 1023.69 144.513 1021.26 146.859C1016.23 151.879 1016.66 158.242 1016.86 160.823C1017.32 166.786 1020.32 170.951 1022.22 173.576C1025.17 177.661 1028.44 180.198 1034.3 184.754C1037.13 186.953 1039.65 188.706 1041.54 189.979C1041.85 190.185 1042.2 190.327 1042.58 190.394C1042.95 190.461 1043.34 190.451 1043.71 190.366C1044.08 190.28 1044.42 190.12 1044.71 189.899C1045 189.677 1045.23 189.4 1045.38 189.089C1051.74 175.668 1053.83 160.968 1051.42 146.575C1051.22 145.319 1050.51 144.169 1049.43 143.331C1048.36 142.493 1046.98 142.021 1045.54 142V142Z" stroke="#232323" stroke-width="3.60403" stroke-miterlimit="10" stroke-linecap="round" stroke-linejoin="round"/>
<path d="M773.073 186.262C772.716 178.349 772.215 166.875 765.6 157.143C759.95 148.913 752.656 145.946 745.147 142.939C736.59 139.425 727.323 138.59 718.365 140.526V140.763C711.263 135.074 702.839 131.752 694.086 131.189V111.407C694.109 109.907 693.865 108.417 693.367 107.022C692.869 105.627 692.127 104.354 691.184 103.277C690.24 102.2 689.114 101.34 687.869 100.746C686.625 100.152 685.286 99.8351 683.931 99.8145H678.817V108.479H683.931C684.695 108.423 685.45 108.697 686.036 109.242C686.623 109.788 686.996 110.564 687.077 111.407V131.426C677.878 132.422 669.159 136.446 662.047 142.979V141.831C654.202 139.584 645.956 139.693 638.161 142.148C630.776 144.973 624.357 150.251 619.782 157.261C613.131 166.994 612.631 178.547 612.309 186.38C612.309 189.585 611.987 197.34 616.85 219.06C617.601 222.344 619.496 230.653 625.79 252.452C635.23 284.934 633.942 276.586 639.484 296.21C641.771 303.377 644.458 310.381 647.53 317.179C648.775 320.873 650.769 324.203 653.358 326.912C656.965 330.114 661.554 331.646 666.16 331.185C669.934 330.808 673.533 329.243 676.529 326.674C678.116 329.499 680.32 331.835 682.939 333.467C685.558 335.099 688.506 335.974 691.511 336.011C694.826 335.975 698.065 334.919 700.869 332.963C703.672 331.007 705.929 328.227 707.387 324.934V325.487C710.869 328.521 714.991 330.523 719.366 331.303C723.96 331.754 728.534 330.223 732.131 327.03C734.733 324.325 736.739 320.995 737.996 317.298C741.05 310.495 743.724 303.493 746.005 296.329C751.583 276.547 750.296 285.053 759.7 252.571C766.029 230.771 767.924 222.463 768.639 219.179C773.359 197.221 773.216 189.466 773.073 186.262Z" fill="#ABFFA9"/>
<path d="M736.589 187.697C736.589 156.36 715.265 130.926 688.681 130.926C662.097 130.926 640.773 156.36 640.773 187.697C640.773 191.19 641.046 194.676 641.591 198.116C642.231 204.455 643.368 211.506 645.145 220.737C649.09 242.566 652.253 242.011 656.695 265.781C660.249 284.718 660.249 294.107 666.362 310.311C668.162 315.027 670.24 319.606 672.581 324.018C673.89 327.489 676.069 330.465 678.856 332.591C681.644 334.716 684.923 335.9 688.299 336C691.675 336.1 695.006 335.113 697.891 333.157C700.777 331.2 703.095 328.357 704.567 324.969C707.088 320.256 709.32 315.359 711.249 310.311C717.468 294.107 717.29 284.718 720.915 265.781C725.5 242.011 728.521 242.566 732.501 220.737C734.314 210.516 735.522 202.989 736.055 196.175C736.412 193.366 736.591 190.533 736.589 187.697V187.697Z" stroke="#232323" stroke-width="3.60403" stroke-linecap="round" stroke-linejoin="round"/>
<path d="M715.963 140.901C724.871 138.973 734.085 139.805 742.594 143.306C750.061 146.302 757.314 149.258 762.932 157.458C769.51 167.155 770.043 178.665 770.363 186.471C770.363 189.664 770.647 197.39 765.812 219.031C765.101 222.303 763.216 230.581 756.923 252.302C747.572 284.665 748.852 276.348 743.305 295.9C741.037 303.038 738.378 310.015 735.341 316.793C734.092 320.477 732.097 323.794 729.51 326.49C725.933 329.671 721.385 331.196 716.817 330.747C712.475 329.98 708.385 327.984 704.941 324.953" stroke="#232323" stroke-width="3.60403" stroke-linecap="round" stroke-linejoin="round"/>
<path d="M659.211 141.494C651.377 139.248 643.145 139.358 635.362 141.811C627.993 144.646 621.588 149.919 617.012 156.916C610.407 166.644 609.871 178.19 609.55 186.02C609.55 189.223 609.265 196.973 614.084 218.682C614.834 221.964 616.726 230.268 623.045 252.057C632.435 284.521 631.149 276.178 636.719 295.791C638.996 302.951 641.667 309.95 644.716 316.749C645.97 320.445 647.973 323.772 650.571 326.476C654.163 329.668 658.729 331.198 663.316 330.747C667.097 330.376 670.702 328.811 673.705 326.239" stroke="#232323" stroke-width="3.60403" stroke-linecap="round" stroke-linejoin="round"/>
<path d="M691.008 130.929H683.973V108.659C683.885 107.811 683.515 107.033 682.94 106.483C682.365 105.934 681.628 105.654 680.878 105.7H675.812V96.9844H680.878C683.558 97.037 686.111 98.2953 687.977 100.484C689.843 102.672 690.869 105.612 690.832 108.659L691.008 130.929Z" stroke="#232323" stroke-width="3.60403" stroke-linecap="round" stroke-linejoin="round"/>
<path d="M575.946 204.838C576.404 199.822 576.856 194.803 577.304 189.782L550.151 82.2911V49.7005C550.151 46.9051 551.261 44.2242 553.237 42.2475C555.213 40.2709 557.892 39.1605 560.687 39.1605H574.565C575.132 39.1611 575.691 39.029 576.198 38.7749C576.705 38.5207 577.145 38.1515 577.484 37.6966C577.823 37.2418 578.05 36.7141 578.148 36.1556C578.247 35.597 578.213 35.0233 578.05 34.4801C577.125 31.3968 575.789 28.4518 574.08 25.7241C568.111 16.2365 559.262 12.2877 553.247 9.56314C546.659 6.63136 539.613 4.86347 532.422 4.33789H487.913C487.121 4.33789 486.362 4.65247 485.802 5.21243C485.243 5.77238 484.928 6.53185 484.928 7.32375V4.71859L468.005 4.90521C467.327 4.91307 466.68 5.18788 466.204 5.66999C465.728 6.1521 465.46 6.80265 465.461 7.48052V20.9169C465.46 21.5809 465.716 22.2195 466.175 22.6994C466.633 23.1793 467.26 23.4633 467.923 23.4922L484.928 24.2386V22.5889C484.928 23.0652 485.042 23.5345 485.26 23.9579C485.478 24.3812 485.794 24.7462 486.182 25.0224L484.943 36.4433C483.882 39.4454 482.281 42.2282 480.22 44.6544C478.807 46.313 477.19 47.7854 475.407 49.0362C474.661 52.5669 473.788 56.3291 472.631 60.2854C471.579 63.8684 470.437 67.2275 469.251 70.3477C469.187 70.5 469.182 70.6706 469.237 70.8263C469.292 70.982 469.403 71.1117 469.548 71.19C469.694 71.2683 469.863 71.2896 470.023 71.2498C470.184 71.21 470.323 71.112 470.415 70.9747C474.967 64.8911 478.899 59.6135 482.705 54.4406C484.824 51.5592 487.181 48.3196 491.606 45.9682C495.257 44.0898 499.331 43.1848 503.433 43.3406H508.656C509.604 48.2972 510.559 53.2686 511.425 57.9489V82.3359H511.865C510.246 85.5158 508.358 88.8973 506.172 92.4132C505.276 93.8539 504.373 95.2348 503.478 96.5635C502.423 98.1248 501.766 99.9207 501.565 101.794C501.363 103.668 501.623 105.563 502.321 107.313C504.921 113.803 506.99 120.493 508.507 127.318C511.35 140.135 513.223 148.592 509.999 158.572C507.574 165.985 503.172 171.65 500.508 175.077C496.344 180.429 492.121 185.079 488.972 187.595C480.915 191.996 473.82 197.967 468.107 205.155C462.393 212.344 458.176 220.604 455.705 229.449C453.234 238.294 452.559 247.544 453.719 256.654C454.88 265.765 457.852 274.55 462.461 282.493C466.332 289.107 468.391 296.625 468.43 304.289V321.563C468.43 325.591 470.03 329.455 472.878 332.304C475.725 335.153 479.588 336.753 483.615 336.753H563C567.027 336.753 570.889 335.153 573.737 332.304C576.585 329.455 578.184 325.591 578.184 321.563V292.57C578.199 289.718 579.013 286.927 580.535 284.516C588.122 272.398 591.756 258.22 590.933 243.945C590.111 229.67 584.874 216.004 575.946 204.838Z" fill="#A9DBFF"/>
<path d="M555.296 186.817C522.653 167.061 479.7 177.851 460.194 210.608C453.92 221.159 450.576 233.19 450.505 245.463C450.434 257.735 453.639 269.805 459.79 280.427C463.669 287.048 465.732 294.574 465.771 302.246V319.536C465.771 323.569 467.374 327.437 470.227 330.288C473.081 333.14 476.951 334.742 480.986 334.742H560.544C564.58 334.742 568.45 333.14 571.303 330.288C574.156 327.437 575.759 323.569 575.759 319.536V290.515C575.774 287.66 576.59 284.866 578.114 282.452V282.452C582.968 274.695 586.23 266.051 587.709 257.022C589.189 247.993 588.858 238.761 586.734 229.861C584.611 220.962 580.738 212.573 575.341 205.184C569.944 197.794 563.13 191.551 555.296 186.817V186.817Z" stroke="#232323" stroke-width="3.60403" stroke-miterlimit="10"/>
<path d="M573.442 202.747C573.9 197.726 574.354 192.702 574.803 187.676L547.595 80.0781H509.27C507.648 83.2612 505.756 86.6461 503.566 90.1654C502.668 91.6075 501.764 92.9899 500.867 94.3199C499.81 95.8828 499.151 97.6804 498.949 99.5559C498.747 101.431 499.008 103.328 499.708 105.08C502.313 111.576 504.386 118.273 505.906 125.105C508.754 137.934 510.631 146.4 507.401 156.39C504.971 163.81 500.56 169.482 497.891 172.911C493.719 178.269 489.487 182.924 486.332 185.442" stroke="#232323" stroke-width="3.60403" stroke-miterlimit="10"/>
<path d="M547.598 55.666H508.832V80.0773H547.598V55.666Z" stroke="#232323" stroke-width="3.60403" stroke-miterlimit="10"/>
<path d="M547.588 55.6645V47.4452C547.588 44.647 548.7 41.9634 550.68 39.9848C552.66 38.0062 555.345 36.8946 558.145 36.8946H572.066C572.634 36.8953 573.195 36.7631 573.703 36.5087C574.21 36.2542 574.652 35.8846 574.991 35.4294C575.33 34.9741 575.558 34.4458 575.657 33.8867C575.755 33.3277 575.721 32.7533 575.558 32.2096C574.631 29.1233 573.293 26.1754 571.581 23.4449C565.599 13.9479 556.739 9.99514 550.713 7.26783C544.111 4.32143 537.049 2.53917 529.839 2H485.241C484.447 2 483.687 2.31491 483.126 2.87543C482.565 3.43594 482.25 4.19617 482.25 4.98885V20.2468C482.25 20.8935 482.46 21.5228 482.848 22.0401C483.236 22.5575 483.782 22.935 484.403 23.1161L498.938 27.3378C500.369 27.7527 501.657 28.5551 502.66 29.6562C503.663 30.7574 504.341 32.1144 504.62 33.577C506.003 40.8847 507.513 48.6183 508.822 55.6719" stroke="#232323" stroke-width="3.60403" stroke-miterlimit="10"/>
<path d="M483.516 22.6738L482.26 34.1734C481.196 37.1785 479.592 39.964 477.527 42.3927C476.112 44.0529 474.491 45.5267 472.705 46.7788C471.957 50.3056 471.082 54.079 469.923 58.0392C468.869 61.6258 467.725 64.9882 466.536 68.1115C466.472 68.2639 466.467 68.4347 466.522 68.5906C466.577 68.7465 466.689 68.8763 466.834 68.9547C466.98 69.0331 467.15 69.0544 467.31 69.0146C467.471 68.9747 467.611 68.8766 467.703 68.7392C472.263 62.6495 476.204 57.3667 480.017 52.1885C482.14 49.3043 484.503 46.054 488.936 43.7077C492.593 41.8242 496.676 40.9182 500.787 41.0776H506.058" stroke="#232323" stroke-width="3.60403" stroke-miterlimit="10"/>
<path d="M482.272 21.8914L465.233 21.1442C464.569 21.1135 463.943 20.8286 463.483 20.3486C463.024 19.8687 462.767 19.2305 462.766 18.5663V5.11657C462.768 4.43932 463.036 3.79001 463.513 3.30903C463.99 2.82804 464.638 2.55403 465.315 2.54618L482.272 2.35938V21.8914Z" stroke="#232323" stroke-width="3.60403" stroke-miterlimit="10"/>
<path d="M671.05 271.878V166.085L678.576 158.485V111.718L664.602 97.7523L635.866 91.9639V77.8932H639.806C639.806 76.1735 639.122 74.5242 637.905 73.3082C636.689 72.0922 635.038 71.4091 633.318 71.4091H633.817C635.726 71.4091 637.556 70.6512 638.906 69.3023C640.256 67.9534 641.014 66.1239 641.014 64.2162V31.6251C641.014 30.6811 640.828 29.7464 640.466 28.8745C640.104 28.0025 639.574 27.2105 638.905 26.5436C638.237 25.8767 637.443 25.3481 636.57 24.9881C635.697 24.628 634.761 24.4436 633.817 24.4453H598.671C597.727 24.4436 596.791 24.628 595.918 24.9881C595.045 25.3481 594.251 25.8767 593.583 26.5436C592.914 27.2105 592.384 28.0025 592.022 28.8745C591.66 29.7464 591.474 30.6811 591.474 31.6251V64.2031C591.474 66.1107 592.232 67.9403 593.582 69.2892C594.932 70.6381 596.763 71.3959 598.671 71.3959H599.17C598.318 71.3977 597.475 71.5671 596.689 71.8945C595.902 72.222 595.188 72.701 594.587 73.3044C593.985 73.9077 593.509 74.6235 593.184 75.4108C592.86 76.1981 592.694 77.0417 592.696 77.8932H596.018V91.977L567.978 96.6629L553.531 111.718V158.485L561.228 166.085V271.878L554.017 279.478H553.781V321.414L567.873 335.997H664.142L678.734 321.414V279.478H678.97L671.05 271.878Z" fill="#E8E8E8"/>
<path d="M671.049 270.694V165.074L678.576 157.473V110.796L664.599 96.8398L635.857 91.0739V77H596.001V91.0739L567.955 95.7522L553.531 110.796V157.473L561.229 165.074V270.694L554.24 278.281H553.781V320.149L567.876 334.695H664.139L678.733 320.149V278.281H677.647L671.049 270.694Z" stroke="#232323" stroke-width="3.60403" stroke-miterlimit="10"/>
<path d="M633.566 23.1367H598.248C594.258 23.1367 591.023 26.3623 591.023 30.3412V62.9717C591.023 66.9507 594.258 70.1762 598.248 70.1762H633.566C637.555 70.1762 640.79 66.9507 640.79 62.9717V30.3412C640.79 26.3623 637.555 23.1367 633.566 23.1367Z" stroke="#232323" stroke-width="3.60403" stroke-miterlimit="10"/>
<path d="M566.469 109.715C582.891 108.806 600.025 108.352 617.871 108.352C634.294 108.352 650.11 108.806 665.32 109.715" stroke="#232323" stroke-width="3.60403" stroke-miterlimit="10" stroke-linecap="round"/>
<path d="M568.527 164.256H658.628" stroke="#232323" stroke-width="3.60403" stroke-miterlimit="10" stroke-linecap="round"/>
<path d="M565.117 270.604H667.377" stroke="#232323" stroke-width="3.60403" stroke-miterlimit="10" stroke-linecap="round"/>
<path d="M639.422 77H592.382C592.382 75.192 593.063 73.458 594.274 72.1796C595.486 70.9011 597.129 70.1829 598.842 70.1829H632.91C633.762 70.1756 634.608 70.3465 635.398 70.6859C636.188 71.0252 636.906 71.5262 637.511 72.1599C638.117 72.7937 638.597 73.5477 638.925 74.3784C639.253 75.2091 639.422 76.1001 639.422 77Z" stroke="#232323" stroke-width="3.60403" stroke-miterlimit="10" stroke-linejoin="round"/>
<path d="M565.117 319.152C576.061 320.253 587.582 321.084 599.643 321.52C621.78 322.328 643.948 321.773 666.014 319.856" stroke="#232323" stroke-width="3.60403" stroke-miterlimit="10" stroke-linecap="round"/>
</svg>
