<svg width="334" height="95" viewBox="0 0 334 95" fill="none" xmlns="http://www.w3.org/2000/svg">
<path d="M285 41H279V86H285V41Z" fill="#D2D2D2" stroke="#232323" stroke-miterlimit="10" stroke-linecap="round" stroke-linejoin="round"/>
<path d="M285.502 86H278.749L269 94H296L285.502 86Z" fill="#D2D2D2" stroke="#232323" stroke-linecap="round" stroke-linejoin="round"/>
<path d="M209 41H202V86H209V41Z" fill="#D2D2D2" stroke="#232323" stroke-miterlimit="10" stroke-linecap="round" stroke-linejoin="round"/>
<path d="M209.114 86H202.11L192 94H220L209.114 86Z" fill="#D2D2D2" stroke="#232323" stroke-linecap="round" stroke-linejoin="round"/>
<path d="M133 41H126V86H133V41Z" fill="#D2D2D2" stroke="#232323" stroke-miterlimit="10" stroke-linecap="round" stroke-linejoin="round"/>
<path d="M133.114 86H126.11L116 94H144L133.114 86Z" fill="#D2D2D2" stroke="#232323" stroke-linecap="round" stroke-linejoin="round"/>
<path d="M58 41H51V86H58V41Z" fill="#D2D2D2" stroke="#232323" stroke-miterlimit="10" stroke-linecap="round" stroke-linejoin="round"/>
<path d="M57.8913 86H51.3877L42 94H68L57.8913 86Z" fill="#D2D2D2" stroke="#232323" stroke-linecap="round" stroke-linejoin="round"/>
<path d="M310.299 1H23.7006C11.1634 1 1 9.95435 1 21C1 32.0457 11.1634 41 23.7006 41H310.299C322.837 41 333 32.0457 333 21C333 9.95435 322.837 1 310.299 1Z" fill="#D2D2D2" stroke="#232323" stroke-miterlimit="10" stroke-linecap="round" stroke-linejoin="round"/>
<path d="M58.5 30C63.7467 30 68 25.9706 68 21C68 16.0295 63.7467 12 58.5 12C53.2533 12 49 16.0295 49 21C49 25.9706 53.2533 30 58.5 30Z" fill="#F5F5F5" stroke="#232323" stroke-miterlimit="10" stroke-linecap="round" stroke-linejoin="round"/>
<path d="M113 30C117.971 30 122 25.9706 122 21C122 16.0295 117.971 12 113 12C108.029 12 104 16.0295 104 21C104 25.9706 108.029 30 113 30Z" fill="#F5F5F5" stroke="#232323" stroke-miterlimit="10" stroke-linecap="round" stroke-linejoin="round"/>
<path d="M167 30C171.971 30 176 25.9706 176 21C176 16.0295 171.971 12 167 12C162.029 12 158 16.0295 158 21C158 25.9706 162.029 30 167 30Z" fill="#F5F5F5" stroke="#232323" stroke-miterlimit="10" stroke-linecap="round" stroke-linejoin="round"/>
<path d="M221.5 30C226.747 30 231 25.9706 231 21C231 16.0295 226.747 12 221.5 12C216.253 12 212 16.0295 212 21C212 25.9706 216.253 30 221.5 30Z" fill="#F5F5F5" stroke="#232323" stroke-miterlimit="10" stroke-linecap="round" stroke-linejoin="round"/>
<path d="M276 30C280.971 30 285 25.9706 285 21C285 16.0295 280.971 12 276 12C271.029 12 267 16.0295 267 21C267 25.9706 271.029 30 276 30Z" fill="#F5F5F5" stroke="#232323" stroke-miterlimit="10" stroke-linecap="round" stroke-linejoin="round"/>
</svg>
